<svg data-asc="0.9052734375" viewBox="0 8.859999656677246 327.55238720703124 46.93000030517578" xmlns="http://www.w3.org/2000/svg" style="max-height: 500px" width="327.55238720703124" height="46.93000030517578"><g fill="#999da9"><g transform="translate(0, 0)" fill="#999da9"><path d="M0 45.26L13.75 9.47L18.85 9.47L33.50 45.26L28.10 45.26L23.93 34.42L8.96 34.42L5.03 45.26L0 45.26M10.33 30.57L22.46 30.57L18.73 20.65Q17.02 16.14 16.19 13.23Q15.50 16.67 14.26 20.07L10.33 30.57ZM36.74 14.53L36.74 9.47L41.14 9.47L41.14 14.53L36.74 14.53M36.74 45.26L36.74 19.34L41.14 19.34L41.14 45.26L36.74 45.26ZM47.78 45.26L47.78 19.34L51.73 19.34L51.73 23.27Q53.25 20.51 54.53 19.63Q55.81 18.75 57.35 18.75Q59.57 18.75 61.87 20.17L60.35 24.24Q58.74 23.29 57.13 23.29Q55.69 23.29 54.54 24.16Q53.39 25.02 52.91 26.56Q52.17 28.91 52.17 31.69L52.17 45.26L47.78 45.26ZM81.40 35.77L85.72 36.33Q85.01 40.80 82.09 43.32Q79.17 45.85 74.93 45.85Q69.60 45.85 66.37 42.37Q63.13 38.89 63.13 32.40Q63.13 28.20 64.53 25.05Q65.92 21.90 68.76 20.32Q71.61 18.75 74.95 18.75Q79.17 18.75 81.86 20.89Q84.55 23.02 85.30 26.95L81.03 27.61Q80.42 25 78.87 23.68Q77.32 22.36 75.12 22.36Q71.80 22.36 69.73 24.74Q67.65 27.12 67.65 32.28Q67.65 37.50 69.65 39.87Q71.66 42.24 74.88 42.24Q77.47 42.24 79.20 40.65Q80.93 39.06 81.40 35.77ZM89.43 45.26L89.43 19.34L93.38 19.34L93.38 23.27Q94.90 20.51 96.18 19.63Q97.46 18.75 99.00 18.75Q101.22 18.75 103.52 20.17L102.00 24.24Q100.39 23.29 98.78 23.29Q97.34 23.29 96.19 24.16Q95.04 25.02 94.56 26.56Q93.82 28.91 93.82 31.69L93.82 45.26L89.43 45.26ZM123.05 42.07Q120.61 44.14 118.35 45.00Q116.09 45.85 113.50 45.85Q109.23 45.85 106.93 43.76Q104.64 41.67 104.64 38.43Q104.64 36.52 105.51 34.95Q106.37 33.37 107.78 32.42Q109.18 31.47 110.94 30.98Q112.23 30.64 114.84 30.32Q120.17 29.69 122.68 28.81Q122.71 27.91 122.71 27.66Q122.71 24.98 121.46 23.88Q119.78 22.39 116.46 22.39Q113.35 22.39 111.88 23.47Q110.40 24.56 109.69 27.32L105.40 26.73Q105.98 23.97 107.32 22.28Q108.67 20.58 111.21 19.67Q113.75 18.75 117.09 18.75Q120.41 18.75 122.49 19.53Q124.56 20.31 125.54 21.50Q126.51 22.68 126.90 24.49Q127.12 25.61 127.12 28.54L127.12 34.40Q127.12 40.53 127.40 42.15Q127.69 43.77 128.52 45.26L123.93 45.26Q123.24 43.90 123.05 42.07M122.68 32.25Q120.29 33.23 115.50 33.91Q112.79 34.30 111.67 34.79Q110.55 35.28 109.94 36.22Q109.33 37.16 109.33 38.31Q109.33 40.06 110.66 41.24Q111.99 42.41 114.55 42.41Q117.09 42.41 119.07 41.30Q121.04 40.19 121.97 38.26Q122.68 36.77 122.68 33.86L122.68 32.25ZM134.99 45.26L134.99 22.75L131.10 22.75L131.10 19.34L134.99 19.34L134.99 16.58Q134.99 13.96 135.45 12.70Q136.08 10.99 137.68 9.92Q139.28 8.86 142.16 8.86Q144.02 8.86 146.26 9.30L145.61 13.13Q144.24 12.89 143.02 12.89Q141.02 12.89 140.19 13.75Q139.36 14.60 139.36 16.94L139.36 19.34L144.41 19.34L144.41 22.75L139.36 22.75L139.36 45.26L134.99 45.26ZM157.42 41.33L158.06 45.21Q156.20 45.61 154.74 45.61Q152.34 45.61 151.03 44.85Q149.71 44.09 149.17 42.86Q148.63 41.63 148.63 37.67L148.63 22.75L145.41 22.75L145.41 19.34L148.63 19.34L148.63 12.92L153.00 10.28L153.00 19.34L157.42 19.34L157.42 22.75L153.00 22.75L153.00 37.92Q153.00 39.79 153.23 40.33Q153.47 40.87 153.99 41.19Q154.52 41.50 155.49 41.50Q156.23 41.50 157.42 41.33ZM201.71 32.71L206.45 33.91Q204.96 39.75 201.09 42.81Q197.22 45.87 191.63 45.87Q185.84 45.87 182.21 43.52Q178.59 41.16 176.70 36.69Q174.80 32.23 174.80 27.10Q174.80 21.51 176.94 17.35Q179.08 13.18 183.02 11.02Q186.96 8.86 191.70 8.86Q197.07 8.86 200.73 11.60Q204.39 14.33 205.83 19.29L201.17 20.39Q199.93 16.48 197.56 14.70Q195.19 12.92 191.60 12.92Q187.48 12.92 184.70 14.89Q181.93 16.87 180.81 20.20Q179.69 23.54 179.69 27.08Q179.69 31.64 181.02 35.05Q182.35 38.45 185.16 40.14Q187.96 41.82 191.24 41.82Q195.21 41.82 197.97 39.53Q200.73 37.23 201.71 32.71ZM228.64 42.07Q226.20 44.14 223.94 45.00Q221.68 45.85 219.09 45.85Q214.82 45.85 212.52 43.76Q210.23 41.67 210.23 38.43Q210.23 36.52 211.10 34.95Q211.96 33.37 213.37 32.42Q214.77 31.47 216.53 30.98Q217.82 30.64 220.43 30.32Q225.76 29.69 228.27 28.81Q228.30 27.91 228.30 27.66Q228.30 24.98 227.05 23.88Q225.37 22.39 222.05 22.39Q218.95 22.39 217.47 23.47Q215.99 24.56 215.28 27.32L210.99 26.73Q211.57 23.97 212.92 22.28Q214.26 20.58 216.80 19.67Q219.34 18.75 222.68 18.75Q226.00 18.75 228.08 19.53Q230.15 20.31 231.13 21.50Q232.10 22.68 232.50 24.49Q232.71 25.61 232.71 28.54L232.71 34.40Q232.71 40.53 233.00 42.15Q233.28 43.77 234.11 45.26L229.52 45.26Q228.83 43.90 228.64 42.07M228.27 32.25Q225.88 33.23 221.09 33.91Q218.38 34.30 217.26 34.79Q216.14 35.28 215.53 36.22Q214.92 37.16 214.92 38.31Q214.92 40.06 216.25 41.24Q217.58 42.41 220.14 42.41Q222.68 42.41 224.66 41.30Q226.64 40.19 227.56 38.26Q228.27 36.77 228.27 33.86L228.27 32.25ZM239.48 45.26L239.48 19.34L243.43 19.34L243.43 23.27Q244.95 20.51 246.23 19.63Q247.51 18.75 249.05 18.75Q251.27 18.75 253.56 20.17L252.05 24.24Q250.44 23.29 248.83 23.29Q247.39 23.29 246.24 24.16Q245.09 25.02 244.60 26.56Q243.87 28.91 243.87 31.69L243.87 45.26L239.48 45.26ZM256.13 45.26L256.13 19.34L260.08 19.34L260.08 23.27Q261.60 20.51 262.88 19.63Q264.16 18.75 265.70 18.75Q267.92 18.75 270.21 20.17L268.70 24.24Q267.09 23.29 265.48 23.29Q264.04 23.29 262.89 24.16Q261.74 25.02 261.25 26.56Q260.52 28.91 260.52 31.69L260.52 45.26L256.13 45.26ZM272.85 14.53L272.85 9.47L277.25 9.47L277.25 14.53L272.85 14.53M272.85 45.26L272.85 19.34L277.25 19.34L277.25 45.26L272.85 45.26ZM301.68 36.91L306.23 37.48Q305.15 41.46 302.25 43.65Q299.34 45.85 294.82 45.85Q289.14 45.85 285.80 42.35Q282.47 38.84 282.47 32.52Q282.47 25.98 285.84 22.36Q289.21 18.75 294.58 18.75Q299.78 18.75 303.08 22.29Q306.37 25.83 306.37 32.25Q306.37 32.64 306.35 33.42L287.01 33.42Q287.26 37.70 289.43 39.97Q291.60 42.24 294.85 42.24Q297.27 42.24 298.97 40.97Q300.68 39.70 301.68 36.91M287.26 29.81L301.73 29.81Q301.44 26.54 300.07 24.90Q297.97 22.36 294.63 22.36Q291.60 22.36 289.54 24.39Q287.48 26.42 287.26 29.81ZM311.69 45.26L311.69 19.34L315.65 19.34L315.65 23.27Q317.16 20.51 318.44 19.63Q319.73 18.75 321.26 18.75Q323.49 18.75 325.78 20.17L324.27 24.24Q322.66 23.29 321.04 23.29Q319.60 23.29 318.46 24.16Q317.31 25.02 316.82 26.56Q316.09 28.91 316.09 31.69L316.09 45.26L311.69 45.26ZM328.76 45.26L328.76 9.47L342.19 9.47Q346.29 9.47 348.77 10.56Q351.25 11.65 352.65 13.90Q354.05 16.16 354.05 18.63Q354.05 20.92 352.81 22.95Q351.56 24.98 349.05 26.22Q352.29 27.17 354.04 29.47Q355.79 31.76 355.79 34.89Q355.79 37.40 354.72 39.56Q353.66 41.72 352.10 42.90Q350.54 44.07 348.18 44.67Q345.83 45.26 342.41 45.26L328.76 45.26M333.50 24.51L341.24 24.51Q344.38 24.51 345.75 24.10Q347.56 23.56 348.47 22.31Q349.39 21.07 349.39 19.19Q349.39 17.41 348.54 16.05Q347.68 14.70 346.09 14.20Q344.51 13.70 340.65 13.70L333.50 13.70L333.50 24.51M333.50 41.04L342.41 41.04Q344.70 41.04 345.63 40.87Q347.27 40.58 348.36 39.89Q349.46 39.21 350.17 37.90Q350.88 36.60 350.88 34.89Q350.88 32.89 349.85 31.41Q348.83 29.93 347.01 29.33Q345.19 28.74 341.77 28.74L333.50 28.74L333.50 41.04ZM378.66 42.07Q376.22 44.14 373.96 45.00Q371.70 45.85 369.12 45.85Q364.84 45.85 362.55 43.76Q360.25 41.67 360.25 38.43Q360.25 36.52 361.12 34.95Q361.99 33.37 363.39 32.42Q364.79 31.47 366.55 30.98Q367.85 30.64 370.46 30.32Q375.78 29.69 378.30 28.81Q378.32 27.91 378.32 27.66Q378.32 24.98 377.08 23.88Q375.39 22.39 372.07 22.39Q368.97 22.39 367.49 23.47Q366.02 24.56 365.31 27.32L361.01 26.73Q361.60 23.97 362.94 22.28Q364.28 20.58 366.82 19.67Q369.36 18.75 372.71 18.75Q376.03 18.75 378.10 19.53Q380.18 20.31 381.15 21.50Q382.13 22.68 382.52 24.49Q382.74 25.61 382.74 28.54L382.74 34.40Q382.74 40.53 383.02 42.15Q383.30 43.77 384.13 45.26L379.54 45.26Q378.86 43.90 378.66 42.07M378.30 32.25Q375.90 33.23 371.12 33.91Q368.41 34.30 367.29 34.79Q366.16 35.28 365.55 36.22Q364.94 37.16 364.94 38.31Q364.94 40.06 366.27 41.24Q367.60 42.41 370.17 42.41Q372.71 42.41 374.68 41.30Q376.66 40.19 377.59 38.26Q378.30 36.77 378.30 33.86L378.30 32.25ZM399.15 41.33L399.78 45.21Q397.92 45.61 396.46 45.61Q394.07 45.61 392.75 44.85Q391.43 44.09 390.89 42.86Q390.36 41.63 390.36 37.67L390.36 22.75L387.13 22.75L387.13 19.34L390.36 19.34L390.36 12.92L394.73 10.28L394.73 19.34L399.15 19.34L399.15 22.75L394.73 22.75L394.73 37.92Q394.73 39.79 394.96 40.33Q395.19 40.87 395.72 41.19Q396.24 41.50 397.22 41.50Q397.95 41.50 399.15 41.33ZM413.04 41.33L413.67 45.21Q411.82 45.61 410.35 45.61Q407.96 45.61 406.64 44.85Q405.32 44.09 404.79 42.86Q404.25 41.63 404.25 37.67L404.25 22.75L401.03 22.75L401.03 19.34L404.25 19.34L404.25 12.92L408.62 10.28L408.62 19.34L413.04 19.34L413.04 22.75L408.62 22.75L408.62 37.92Q408.62 39.79 408.85 40.33Q409.08 40.87 409.61 41.19Q410.13 41.50 411.11 41.50Q411.84 41.50 413.04 41.33ZM417.24 45.26L417.24 9.47L421.63 9.47L421.63 45.26L417.24 45.26ZM446.19 36.91L450.73 37.48Q449.66 41.46 446.75 43.65Q443.85 45.85 439.33 45.85Q433.64 45.85 430.31 42.35Q426.98 38.84 426.98 32.52Q426.98 25.98 430.35 22.36Q433.72 18.75 439.09 18.75Q444.29 18.75 447.58 22.29Q450.88 25.83 450.88 32.25Q450.88 32.64 450.85 33.42L431.52 33.42Q431.76 37.70 433.94 39.97Q436.11 42.24 439.36 42.24Q441.77 42.24 443.48 40.97Q445.19 39.70 446.19 36.91M431.76 29.81L446.24 29.81Q445.95 26.54 444.58 24.90Q442.48 22.36 439.14 22.36Q436.11 22.36 434.05 24.39Q431.98 26.42 431.76 29.81ZM454.49 37.52L458.84 36.84Q459.20 39.45 460.88 40.84Q462.55 42.24 465.55 42.24Q468.58 42.24 470.04 41.00Q471.51 39.77 471.51 38.11Q471.51 36.62 470.21 35.77Q469.31 35.18 465.72 34.28Q460.89 33.06 459.02 32.17Q457.15 31.27 456.19 29.70Q455.22 28.13 455.22 26.22Q455.22 24.49 456.02 23.01Q456.81 21.53 458.18 20.56Q459.20 19.80 460.97 19.27Q462.74 18.75 464.77 18.75Q467.82 18.75 470.13 19.63Q472.44 20.51 473.54 22.01Q474.63 23.51 475.05 26.03L470.75 26.61Q470.46 24.61 469.06 23.49Q467.65 22.36 465.09 22.36Q462.06 22.36 460.77 23.36Q459.47 24.37 459.47 25.71Q459.47 26.56 460.01 27.25Q460.55 27.95 461.69 28.42Q462.35 28.66 465.58 29.54Q470.24 30.79 472.08 31.58Q473.93 32.37 474.98 33.89Q476.03 35.40 476.03 37.65Q476.03 39.84 474.74 41.78Q473.46 43.73 471.04 44.79Q468.63 45.85 465.58 45.85Q460.52 45.85 457.87 43.75Q455.22 41.65 454.49 37.52ZM481.25 45.26L481.25 9.47L485.64 9.47L485.64 22.31Q488.72 18.75 493.41 18.75Q496.29 18.75 498.41 19.89Q500.54 21.02 501.45 23.02Q502.37 25.02 502.37 28.83L502.37 45.26L497.97 45.26L497.97 28.83Q497.97 25.54 496.55 24.04Q495.12 22.53 492.50 22.53Q490.55 22.53 488.83 23.55Q487.11 24.56 486.38 26.29Q485.64 28.03 485.64 31.08L485.64 45.26L481.25 45.26ZM509.08 14.53L509.08 9.47L513.48 9.47L513.48 14.53L509.08 14.53M509.08 45.26L509.08 19.34L513.48 19.34L513.48 45.26L509.08 45.26ZM520.17 55.20L520.17 19.34L524.17 19.34L524.17 22.71Q525.59 20.73 527.37 19.74Q529.15 18.75 531.69 18.75Q535.01 18.75 537.55 20.46Q540.09 22.17 541.38 25.28Q542.68 28.39 542.68 32.10Q542.68 36.08 541.25 39.27Q539.82 42.46 537.10 44.15Q534.38 45.85 531.37 45.85Q529.17 45.85 527.43 44.92Q525.68 43.99 524.56 42.58L524.56 55.20L520.17 55.20M524.15 32.45Q524.15 37.45 526.17 39.84Q528.20 42.24 531.08 42.24Q534.01 42.24 536.10 39.76Q538.18 37.28 538.18 32.08Q538.18 27.12 536.15 24.66Q534.11 22.19 531.27 22.19Q528.47 22.19 526.31 24.82Q524.15 27.44 524.15 32.45ZM548.54 45.26L548.54 9.47L560.86 9.47Q565.04 9.47 567.24 9.99Q570.31 10.69 572.49 12.55Q575.32 14.94 576.72 18.66Q578.13 22.39 578.13 27.17Q578.13 31.25 577.17 34.40Q576.22 37.55 574.73 39.61Q573.24 41.67 571.47 42.86Q569.70 44.04 567.20 44.65Q564.70 45.26 561.45 45.26L548.54 45.26M553.27 41.04L560.91 41.04Q564.45 41.04 566.47 40.38Q568.48 39.72 569.68 38.53Q571.36 36.84 572.30 34.00Q573.24 31.15 573.24 27.10Q573.24 21.48 571.40 18.47Q569.56 15.45 566.92 14.43Q565.01 13.70 560.79 13.70L553.27 13.70L553.27 41.04ZM601.83 36.91L606.37 37.48Q605.30 41.46 602.39 43.65Q599.49 45.85 594.97 45.85Q589.28 45.85 585.95 42.35Q582.62 38.84 582.62 32.52Q582.62 25.98 585.99 22.36Q589.36 18.75 594.73 18.75Q599.93 18.75 603.22 22.29Q606.52 25.83 606.52 32.25Q606.52 32.64 606.49 33.42L587.16 33.42Q587.40 37.70 589.58 39.97Q591.75 42.24 595.00 42.24Q597.41 42.24 599.12 40.97Q600.83 39.70 601.83 36.91M587.40 29.81L601.88 29.81Q601.59 26.54 600.22 24.90Q598.12 22.36 594.78 22.36Q591.75 22.36 589.69 24.39Q587.62 26.42 587.40 29.81ZM610.13 37.52L614.48 36.84Q614.84 39.45 616.52 40.84Q618.19 42.24 621.19 42.24Q624.22 42.24 625.68 41.00Q627.15 39.77 627.15 38.11Q627.15 36.62 625.85 35.77Q624.95 35.18 621.36 34.28Q616.53 33.06 614.66 32.17Q612.79 31.27 611.83 29.70Q610.86 28.13 610.86 26.22Q610.86 24.49 611.66 23.01Q612.45 21.53 613.82 20.56Q614.84 19.80 616.61 19.27Q618.38 18.75 620.41 18.75Q623.46 18.75 625.77 19.63Q628.08 20.51 629.17 22.01Q630.27 23.51 630.69 26.03L626.39 26.61Q626.10 24.61 624.69 23.49Q623.29 22.36 620.73 22.36Q617.70 22.36 616.41 23.36Q615.11 24.37 615.11 25.71Q615.11 26.56 615.65 27.25Q616.19 27.95 617.33 28.42Q617.99 28.66 621.22 29.54Q625.88 30.79 627.72 31.58Q629.57 32.37 630.62 33.89Q631.67 35.40 631.67 37.65Q631.67 39.84 630.38 41.78Q629.10 43.73 626.68 44.79Q624.27 45.85 621.22 45.85Q616.16 45.85 613.51 43.75Q610.86 41.65 610.13 37.52ZM646.48 41.33L647.12 45.21Q645.26 45.61 643.80 45.61Q641.41 45.61 640.09 44.85Q638.77 44.09 638.23 42.86Q637.70 41.63 637.70 37.67L637.70 22.75L634.47 22.75L634.47 19.34L637.70 19.34L637.70 12.92L642.07 10.28L642.07 19.34L646.48 19.34L646.48 22.75L642.07 22.75L642.07 37.92Q642.07 39.79 642.30 40.33Q642.53 40.87 643.05 41.19Q643.58 41.50 644.56 41.50Q645.29 41.50 646.48 41.33ZM650.73 45.26L650.73 19.34L654.69 19.34L654.69 23.27Q656.20 20.51 657.48 19.63Q658.76 18.75 660.30 18.75Q662.52 18.75 664.82 20.17L663.31 24.24Q661.69 23.29 660.08 23.29Q658.64 23.29 657.50 24.16Q656.35 25.02 655.86 26.56Q655.13 28.91 655.13 31.69L655.13 45.26L650.73 45.26ZM665.80 32.30Q665.80 25.10 669.80 21.63Q673.14 18.75 677.95 18.75Q683.30 18.75 686.69 22.25Q690.09 25.76 690.09 31.93Q690.09 36.94 688.59 39.81Q687.08 42.68 684.22 44.26Q681.35 45.85 677.95 45.85Q672.51 45.85 669.15 42.36Q665.80 38.87 665.80 32.30M670.31 32.30Q670.31 37.28 672.49 39.76Q674.66 42.24 677.95 42.24Q681.23 42.24 683.40 39.75Q685.57 37.26 685.57 32.15Q685.57 27.34 683.39 24.87Q681.20 22.39 677.95 22.39Q674.66 22.39 672.49 24.85Q670.31 27.32 670.31 32.30ZM695.04 55.25L694.56 51.12Q696.00 51.51 697.07 51.51Q698.54 51.51 699.41 51.03Q700.29 50.54 700.85 49.66Q701.27 49.00 702.20 46.39Q702.32 46.02 702.59 45.31L692.75 19.34L697.49 19.34L702.88 34.35Q703.93 37.21 704.76 40.36Q705.52 37.33 706.57 34.45L712.11 19.34L716.50 19.34L706.64 45.70Q705.05 49.98 704.17 51.59Q703.00 53.76 701.49 54.77Q699.98 55.79 697.88 55.79Q696.61 55.79 695.04 55.25ZM737.99 36.91L742.53 37.48Q741.46 41.46 738.55 43.65Q735.64 45.85 731.13 45.85Q725.44 45.85 722.11 42.35Q718.77 38.84 718.77 32.52Q718.77 25.98 722.14 22.36Q725.51 18.75 730.88 18.75Q736.08 18.75 739.38 22.29Q742.68 25.83 742.68 32.25Q742.68 32.64 742.65 33.42L723.32 33.42Q723.56 37.70 725.73 39.97Q727.91 42.24 731.15 42.24Q733.57 42.24 735.28 40.97Q736.99 39.70 737.99 36.91M723.56 29.81L738.04 29.81Q737.74 26.54 736.38 24.90Q734.28 22.36 730.93 22.36Q727.91 22.36 725.84 24.39Q723.78 26.42 723.56 29.81ZM748.00 45.26L748.00 19.34L751.95 19.34L751.95 23.27Q753.47 20.51 754.75 19.63Q756.03 18.75 757.57 18.75Q759.79 18.75 762.08 20.17L760.57 24.24Q758.96 23.29 757.35 23.29Q755.91 23.29 754.76 24.16Q753.61 25.02 753.13 26.56Q752.39 28.91 752.39 31.69L752.39 45.26L748.00 45.26ZM763.65 33.76L768.12 33.37Q768.43 36.06 769.59 37.78Q770.75 39.50 773.19 40.56Q775.63 41.63 778.69 41.63Q781.40 41.63 783.47 40.82Q785.55 40.01 786.56 38.61Q787.57 37.21 787.57 35.55Q787.57 33.86 786.60 32.60Q785.62 31.35 783.37 30.49Q781.93 29.93 777.00 28.75Q772.07 27.56 770.09 26.51Q767.53 25.17 766.27 23.18Q765.01 21.19 765.01 18.73Q765.01 16.02 766.55 13.66Q768.09 11.30 771.04 10.08Q774.00 8.86 777.61 8.86Q781.59 8.86 784.63 10.14Q787.67 11.43 789.31 13.92Q790.94 16.41 791.06 19.56L786.52 19.90Q786.16 16.50 784.05 14.77Q781.93 13.04 777.81 13.04Q773.51 13.04 771.55 14.61Q769.58 16.19 769.58 18.41Q769.58 20.34 770.97 21.58Q772.34 22.83 778.11 24.13Q783.89 25.44 786.04 26.42Q789.16 27.86 790.65 30.07Q792.14 32.28 792.14 35.16Q792.14 38.01 790.50 40.54Q788.87 43.07 785.80 44.47Q782.74 45.87 778.91 45.87Q774.05 45.87 770.76 44.46Q767.48 43.04 765.61 40.20Q763.75 37.35 763.65 33.76ZM815.04 45.26L815.04 41.46Q812.01 45.85 806.81 45.85Q804.52 45.85 802.53 44.97Q800.54 44.09 799.57 42.76Q798.61 41.43 798.22 39.50Q797.95 38.21 797.95 35.40L797.95 19.34L802.34 19.34L802.34 33.72Q802.34 37.16 802.61 38.35Q803.03 40.09 804.37 41.08Q805.71 42.07 807.69 42.07Q809.67 42.07 811.40 41.05Q813.13 40.04 813.85 38.29Q814.58 36.55 814.58 33.23L814.58 19.34L818.97 19.34L818.97 45.26L815.04 45.26ZM829.91 45.26L825.83 45.26L825.83 9.47L830.22 9.47L830.22 22.24Q833.01 18.75 837.33 18.75Q839.72 18.75 841.86 19.71Q843.99 20.68 845.37 22.42Q846.75 24.17 847.53 26.64Q848.32 29.10 848.32 31.91Q848.32 38.57 845.02 42.21Q841.72 45.85 837.11 45.85Q832.52 45.85 829.91 42.02L829.91 45.26M829.86 32.10Q829.86 36.77 831.13 38.84Q833.20 42.24 836.74 42.24Q839.62 42.24 841.72 39.73Q843.82 37.23 843.82 32.28Q843.82 27.20 841.81 24.78Q839.79 22.36 836.94 22.36Q834.06 22.36 831.96 24.87Q829.86 27.37 829.86 32.10ZM853.66 45.26L853.66 19.34L857.59 19.34L857.59 22.97Q858.81 21.07 860.84 19.91Q862.87 18.75 865.45 18.75Q868.33 18.75 870.18 19.95Q872.02 21.14 872.78 23.29Q875.85 18.75 880.79 18.75Q884.64 18.75 886.72 20.89Q888.79 23.02 888.79 27.47L888.79 45.26L884.42 45.26L884.42 28.93Q884.42 26.29 884.00 25.13Q883.57 23.97 882.45 23.27Q881.32 22.56 879.81 22.56Q877.08 22.56 875.27 24.38Q873.46 26.20 873.46 30.20L873.46 45.26L869.07 45.26L869.07 28.42Q869.07 25.49 867.99 24.02Q866.92 22.56 864.48 22.56Q862.62 22.56 861.05 23.54Q859.47 24.51 858.76 26.39Q858.06 28.27 858.06 31.81L858.06 45.26L853.66 45.26ZM912.23 42.07Q909.79 44.14 907.53 45.00Q905.27 45.85 902.69 45.85Q898.41 45.85 896.12 43.76Q893.82 41.67 893.82 38.43Q893.82 36.52 894.69 34.95Q895.56 33.37 896.96 32.42Q898.36 31.47 900.12 30.98Q901.42 30.64 904.03 30.32Q909.35 29.69 911.87 28.81Q911.89 27.91 911.89 27.66Q911.89 24.98 910.64 23.88Q908.96 22.39 905.64 22.39Q902.54 22.39 901.06 23.47Q899.58 24.56 898.88 27.32L894.58 26.73Q895.17 23.97 896.51 22.28Q897.85 20.58 900.39 19.67Q902.93 18.75 906.27 18.75Q909.59 18.75 911.67 19.53Q913.75 20.31 914.72 21.50Q915.70 22.68 916.09 24.49Q916.31 25.61 916.31 28.54L916.31 34.40Q916.31 40.53 916.59 42.15Q916.87 43.77 917.70 45.26L913.11 45.26Q912.43 43.90 912.23 42.07M911.87 32.25Q909.47 33.23 904.69 33.91Q901.98 34.30 900.85 34.79Q899.73 35.28 899.12 36.22Q898.51 37.16 898.51 38.31Q898.51 40.06 899.84 41.24Q901.17 42.41 903.74 42.41Q906.27 42.41 908.25 41.30Q910.23 40.19 911.16 38.26Q911.87 36.77 911.87 33.86L911.87 32.25ZM923.07 45.26L923.07 19.34L927.03 19.34L927.03 23.27Q928.54 20.51 929.82 19.63Q931.10 18.75 932.64 18.75Q934.86 18.75 937.16 20.17L935.64 24.24Q934.03 23.29 932.42 23.29Q930.98 23.29 929.83 24.16Q928.69 25.02 928.20 26.56Q927.47 28.91 927.47 31.69L927.47 45.26L923.07 45.26ZM939.79 14.53L939.79 9.47L944.19 9.47L944.19 14.53L939.79 14.53M939.79 45.26L939.79 19.34L944.19 19.34L944.19 45.26L939.79 45.26ZM950.88 45.26L950.88 19.34L954.83 19.34L954.83 23.02Q957.69 18.75 963.09 18.75Q965.43 18.75 967.40 19.59Q969.36 20.43 970.34 21.80Q971.31 23.17 971.70 25.05Q971.95 26.27 971.95 29.32L971.95 45.26L967.55 45.26L967.55 29.49Q967.55 26.81 967.04 25.48Q966.53 24.15 965.22 23.35Q963.92 22.56 962.16 22.56Q959.35 22.56 957.31 24.34Q955.27 26.12 955.27 31.10L955.27 45.26L950.88 45.26ZM996.44 36.91L1000.98 37.48Q999.90 41.46 997.00 43.65Q994.09 45.85 989.58 45.85Q983.89 45.85 980.55 42.35Q977.22 38.84 977.22 32.52Q977.22 25.98 980.59 22.36Q983.96 18.75 989.33 18.75Q994.53 18.75 997.83 22.29Q1001.12 25.83 1001.12 32.25Q1001.12 32.64 1001.10 33.42L981.76 33.42Q982.01 37.70 984.18 39.97Q986.35 42.24 989.60 42.24Q992.02 42.24 993.73 40.97Q995.43 39.70 996.44 36.91M982.01 29.81L996.48 29.81Q996.19 26.54 994.82 24.90Q992.72 22.36 989.38 22.36Q986.35 22.36 984.29 24.39Q982.23 26.42 982.01 29.81ZM1007.06 45.26L1007.06 9.47L1020.56 9.47Q1024.12 9.47 1026.00 9.81Q1028.64 10.25 1030.42 11.49Q1032.20 12.72 1033.29 14.94Q1034.38 17.16 1034.38 19.82Q1034.38 24.39 1031.47 27.55Q1028.56 30.71 1020.97 30.71L1011.79 30.71L1011.79 45.26L1007.06 45.26M1011.79 26.49L1021.04 26.49Q1025.63 26.49 1027.56 24.78Q1029.49 23.07 1029.49 19.97Q1029.49 17.72 1028.36 16.13Q1027.22 14.53 1025.37 14.01Q1024.17 13.70 1020.95 13.70L1011.79 13.70L1011.79 26.49ZM1056.76 42.07Q1054.32 44.14 1052.06 45.00Q1049.80 45.85 1047.22 45.85Q1042.94 45.85 1040.65 43.76Q1038.35 41.67 1038.35 38.43Q1038.35 36.52 1039.22 34.95Q1040.09 33.37 1041.49 32.42Q1042.90 31.47 1044.65 30.98Q1045.95 30.64 1048.56 30.32Q1053.88 29.69 1056.40 28.81Q1056.42 27.91 1056.42 27.66Q1056.42 24.98 1055.18 23.88Q1053.49 22.39 1050.17 22.39Q1047.07 22.39 1045.59 23.47Q1044.12 24.56 1043.41 27.32L1039.11 26.73Q1039.70 23.97 1041.04 22.28Q1042.38 20.58 1044.92 19.67Q1047.46 18.75 1050.81 18.75Q1054.13 18.75 1056.20 19.53Q1058.28 20.31 1059.25 21.50Q1060.23 22.68 1060.62 24.49Q1060.84 25.61 1060.84 28.54L1060.84 34.40Q1060.84 40.53 1061.12 42.15Q1061.40 43.77 1062.23 45.26L1057.64 45.26Q1056.96 43.90 1056.76 42.07M1056.40 32.25Q1054.00 33.23 1049.22 33.91Q1046.51 34.30 1045.39 34.79Q1044.26 35.28 1043.65 36.22Q1043.04 37.16 1043.04 38.31Q1043.04 40.06 1044.37 41.24Q1045.70 42.41 1048.27 42.41Q1050.81 42.41 1052.78 41.30Q1054.76 40.19 1055.69 38.26Q1056.40 36.77 1056.40 33.86L1056.40 32.25ZM1077.25 41.33L1077.88 45.21Q1076.03 45.61 1074.56 45.61Q1072.17 45.61 1070.85 44.85Q1069.53 44.09 1068.99 42.86Q1068.46 41.63 1068.46 37.67L1068.46 22.75L1065.23 22.75L1065.23 19.34L1068.46 19.34L1068.46 12.92L1072.83 10.28L1072.83 19.34L1077.25 19.34L1077.25 22.75L1072.83 22.75L1072.83 37.92Q1072.83 39.79 1073.06 40.33Q1073.29 40.87 1073.82 41.19Q1074.34 41.50 1075.32 41.50Q1076.05 41.50 1077.25 41.33ZM1081.49 45.26L1081.49 19.34L1085.45 19.34L1085.45 23.27Q1086.96 20.51 1088.24 19.63Q1089.53 18.75 1091.06 18.75Q1093.29 18.75 1095.58 20.17L1094.07 24.24Q1092.46 23.29 1090.84 23.29Q1089.40 23.29 1088.26 24.16Q1087.11 25.02 1086.62 26.56Q1085.89 28.91 1085.89 31.69L1085.89 45.26L1081.49 45.26ZM1096.56 32.30Q1096.56 25.10 1100.56 21.63Q1103.91 18.75 1108.72 18.75Q1114.06 18.75 1117.46 22.25Q1120.85 25.76 1120.85 31.93Q1120.85 36.94 1119.35 39.81Q1117.85 42.68 1114.98 44.26Q1112.11 45.85 1108.72 45.85Q1103.27 45.85 1099.91 42.36Q1096.56 38.87 1096.56 32.30M1101.07 32.30Q1101.07 37.28 1103.25 39.76Q1105.42 42.24 1108.72 42.24Q1111.99 42.24 1114.16 39.75Q1116.33 37.26 1116.33 32.15Q1116.33 27.34 1114.15 24.87Q1111.96 22.39 1108.72 22.39Q1105.42 22.39 1103.25 24.85Q1101.07 27.32 1101.07 32.30ZM1125.90 45.26L1125.90 9.47L1130.30 9.47L1130.30 45.26L1125.90 45.26ZM1151.37 45.26L1151.37 9.47L1164.79 9.47Q1168.90 9.47 1171.37 10.56Q1173.85 11.65 1175.26 13.90Q1176.66 16.16 1176.66 18.63Q1176.66 20.92 1175.42 22.95Q1174.17 24.98 1171.66 26.22Q1174.90 27.17 1176.65 29.47Q1178.39 31.76 1178.39 34.89Q1178.39 37.40 1177.33 39.56Q1176.27 41.72 1174.71 42.90Q1173.14 44.07 1170.79 44.67Q1168.43 45.26 1165.01 45.26L1151.37 45.26M1156.10 24.51L1163.84 24.51Q1166.99 24.51 1168.36 24.10Q1170.17 23.56 1171.08 22.31Q1172.00 21.07 1172.00 19.19Q1172.00 17.41 1171.14 16.05Q1170.29 14.70 1168.70 14.20Q1167.11 13.70 1163.26 13.70L1156.10 13.70L1156.10 24.51M1156.10 41.04L1165.01 41.04Q1167.31 41.04 1168.24 40.87Q1169.87 40.58 1170.97 39.89Q1172.07 39.21 1172.78 37.90Q1173.49 36.60 1173.49 34.89Q1173.49 32.89 1172.46 31.41Q1171.44 29.93 1169.62 29.33Q1167.80 28.74 1164.38 28.74L1156.10 28.74L1156.10 41.04ZM1182.71 32.30Q1182.71 25.10 1186.72 21.63Q1190.06 18.75 1194.87 18.75Q1200.22 18.75 1203.61 22.25Q1207.01 25.76 1207.01 31.93Q1207.01 36.94 1205.51 39.81Q1204.00 42.68 1201.14 44.26Q1198.27 45.85 1194.87 45.85Q1189.43 45.85 1186.07 42.36Q1182.71 38.87 1182.71 32.30M1187.23 32.30Q1187.23 37.28 1189.40 39.76Q1191.58 42.24 1194.87 42.24Q1198.14 42.24 1200.32 39.75Q1202.49 37.26 1202.49 32.15Q1202.49 27.34 1200.31 24.87Q1198.12 22.39 1194.87 22.39Q1191.58 22.39 1189.40 24.85Q1187.23 27.32 1187.23 32.30ZM1229.08 42.07Q1226.64 44.14 1224.38 45.00Q1222.12 45.85 1219.53 45.85Q1215.26 45.85 1212.96 43.76Q1210.67 41.67 1210.67 38.43Q1210.67 36.52 1211.54 34.95Q1212.40 33.37 1213.81 32.42Q1215.21 31.47 1216.97 30.98Q1218.26 30.64 1220.87 30.32Q1226.20 29.69 1228.71 28.81Q1228.74 27.91 1228.74 27.66Q1228.74 24.98 1227.49 23.88Q1225.81 22.39 1222.49 22.39Q1219.38 22.39 1217.91 23.47Q1216.43 24.56 1215.72 27.32L1211.43 26.73Q1212.01 23.97 1213.35 22.28Q1214.70 20.58 1217.24 19.67Q1219.78 18.75 1223.12 18.75Q1226.44 18.75 1228.52 19.53Q1230.59 20.31 1231.57 21.50Q1232.54 22.68 1232.93 24.49Q1233.15 25.61 1233.15 28.54L1233.15 34.40Q1233.15 40.53 1233.44 42.15Q1233.72 43.77 1234.55 45.26L1229.96 45.26Q1229.27 43.90 1229.08 42.07M1228.71 32.25Q1226.32 33.23 1221.53 33.91Q1218.82 34.30 1217.70 34.79Q1216.58 35.28 1215.97 36.22Q1215.36 37.16 1215.36 38.31Q1215.36 40.06 1216.69 41.24Q1218.02 42.41 1220.58 42.41Q1223.12 42.41 1225.10 41.30Q1227.08 40.19 1228.00 38.26Q1228.71 36.77 1228.71 33.86L1228.71 32.25ZM1249.56 41.33L1250.20 45.21Q1248.34 45.61 1246.88 45.61Q1244.48 45.61 1243.16 44.85Q1241.85 44.09 1241.31 42.86Q1240.77 41.63 1240.77 37.67L1240.77 22.75L1237.55 22.75L1237.55 19.34L1240.77 19.34L1240.77 12.92L1245.14 10.28L1245.14 19.34L1249.56 19.34L1249.56 22.75L1245.14 22.75L1245.14 37.92Q1245.14 39.79 1245.37 40.33Q1245.61 40.87 1246.13 41.19Q1246.66 41.50 1247.63 41.50Q1248.36 41.50 1249.56 41.33Z"/></g></g></svg>