<svg xmlns="http://www.w3.org/2000/svg" width="2836" height="286" viewBox="0 0 2836 286" version="1.1"><path d="M 2175.140 84.750 C 2172.968 88.463, 2165.466 101.625, 2158.468 114 C 2140.237 146.243, 2130.608 163.228, 2109.715 200 L 2091.250 232.500 2101.811 232.786 C 2107.619 232.943, 2112.889 232.873, 2113.521 232.630 C 2114.153 232.388, 2120.032 222.477, 2126.585 210.607 L 2138.500 189.025 2169.750 189.012 C 2186.938 189.006, 2201.030 189.113, 2201.067 189.250 C 2201.104 189.387, 2202.792 199.175, 2204.817 211 L 2208.500 232.500 2218.868 232.786 C 2229.223 233.072, 2229.234 233.070, 2228.681 230.786 C 2228.376 229.529, 2225.843 214.550, 2223.052 197.500 C 2220.261 180.450, 2217.084 161.325, 2215.993 155 C 2214.902 148.675, 2211.738 129.550, 2208.963 112.500 C 2206.188 95.450, 2203.681 80.713, 2203.392 79.750 C 2202.929 78.211, 2201.432 78, 2190.977 78 L 2179.089 78 2175.140 84.750 M 2280.716 85.659 C 2279.833 89.971, 2277.495 101.150, 2275.521 110.500 C 2271.579 129.168, 2270.833 132.741, 2259.022 189.500 C 2254.559 210.950, 2250.654 229.512, 2250.345 230.750 C 2249.789 232.977, 2249.890 233, 2260.392 233 C 2266.226 233, 2271 232.806, 2271 232.569 C 2271 232.096, 2283.661 170.922, 2284.538 167.159 L 2285.084 164.817 2304.292 165.159 C 2323.309 165.497, 2323.548 165.528, 2328.327 168.337 C 2336.717 173.269, 2344.663 187.156, 2356.028 216.750 L 2362.269 233 2374.025 233 L 2385.781 233 2379.522 217.668 C 2376.079 209.235, 2371.822 199.318, 2370.062 195.630 C 2365.384 185.829, 2355.821 171.994, 2351.103 168.203 C 2346.447 164.462, 2345.952 163, 2349.340 163 C 2353.723 163, 2366.718 159.158, 2373.470 155.866 C 2381.803 151.803, 2389.758 144.129, 2393.223 136.811 C 2402.408 117.411, 2397.528 93.254, 2382.663 84.543 C 2373.669 79.272, 2368.904 78.763, 2323.911 78.272 L 2282.321 77.817 2280.716 85.659 M 2437.995 78.750 C 2437.993 79.162, 2436.174 88.050, 2433.955 98.500 C 2431.735 108.950, 2429.285 120.650, 2428.511 124.500 C 2427.737 128.350, 2425.534 138.925, 2423.616 148 C 2417.611 176.411, 2406 232.175, 2406 232.605 C 2406 232.831, 2432.627 232.900, 2465.171 232.758 L 2524.342 232.500 2525.665 226.500 C 2526.393 223.200, 2527.225 219.488, 2527.513 218.250 L 2528.038 216 2479.519 216 C 2433.600 216, 2431 215.904, 2431 214.214 C 2431 212.374, 2440.630 165.476, 2441.463 163.260 C 2441.822 162.306, 2452.084 161.961, 2486.151 161.760 L 2530.372 161.500 2532.155 153.500 C 2533.135 149.100, 2533.952 145.162, 2533.969 144.750 C 2533.986 144.338, 2514.048 144, 2489.663 144 L 2445.325 144 2447.595 133.250 C 2448.844 127.338, 2451.084 116.537, 2452.575 109.250 L 2455.285 96 2500.937 96 L 2546.590 96 2548.299 87.750 C 2549.240 83.213, 2550.007 79.162, 2550.005 78.750 C 2550.002 78.338, 2524.800 78, 2494 78 C 2463.200 78, 2437.998 78.338, 2437.995 78.750 M 2583.551 78.918 C 2583.239 79.423, 2581.671 86.285, 2580.067 94.168 C 2577.526 106.654, 2572.162 132.325, 2558.372 198 C 2556.467 207.075, 2554.244 217.875, 2553.432 222 C 2552.621 226.125, 2551.711 230.287, 2551.411 231.250 C 2550.915 232.839, 2551.816 233, 2561.186 233 L 2571.507 233 2582.312 180.750 C 2588.255 152.012, 2593.976 123.378, 2595.025 117.117 C 2596.074 110.856, 2597.109 105.558, 2597.324 105.343 C 2597.539 105.128, 2598.732 107.775, 2599.975 111.226 C 2603.661 121.461, 2608.594 133.932, 2612.542 143 C 2614.577 147.675, 2617.259 153.975, 2618.501 157 C 2621.057 163.222, 2648.109 226.022, 2650.055 230.250 C 2651.316 232.990, 2651.358 233, 2661.622 233 L 2671.923 233 2672.866 229.250 C 2673.385 227.188, 2675.473 217.400, 2677.505 207.500 C 2679.538 197.600, 2682.246 184.550, 2683.523 178.500 C 2685.982 166.849, 2690.015 147.548, 2695.067 123.250 C 2696.754 115.138, 2699.189 103.550, 2700.478 97.500 C 2701.767 91.450, 2703.126 84.588, 2703.498 82.250 L 2704.176 78 2694.213 78 L 2684.250 78 2683.663 80.750 C 2675.564 118.704, 2662.656 181.666, 2660.958 191.500 C 2659.724 198.650, 2658.419 205.321, 2658.057 206.324 C 2657.610 207.568, 2656.517 205.183, 2654.621 198.824 C 2650.520 185.068, 2640.585 160.574, 2625.335 126.623 C 2617.894 110.055, 2609.972 92.338, 2607.731 87.250 L 2603.655 78 2593.887 78 C 2588.514 78, 2583.863 78.413, 2583.551 78.918 M 2765.482 104.250 C 2757.304 118.688, 2745.903 138.825, 2740.148 149 C 2734.393 159.175, 2725.985 174.025, 2721.465 182 C 2700.079 219.726, 2693 232.322, 2693 232.647 C 2693 232.841, 2698.088 233, 2704.307 233 L 2715.614 233 2727.704 211.250 L 2739.794 189.500 2771.397 189.236 C 2791.879 189.065, 2803 189.322, 2803 189.967 C 2803 190.515, 2804.575 200.173, 2806.500 211.430 C 2808.425 222.687, 2810 232.146, 2810 232.449 C 2810 232.752, 2814.500 233, 2820 233 C 2826.855 233, 2830 232.639, 2830 231.853 C 2830 230.665, 2821.369 177.955, 2810.977 115.677 C 2807.690 95.975, 2805 79.437, 2805 78.927 C 2805 78.408, 2799.580 78, 2792.676 78 L 2780.352 78 2765.482 104.250 M 2300.433 95.683 C 2299.846 96.132, 2298.137 102.350, 2296.637 109.500 C 2295.136 116.650, 2292.803 127.546, 2291.454 133.714 C 2290.104 139.881, 2289 145.619, 2289 146.464 C 2289 147.806, 2292.193 147.996, 2314.250 147.965 C 2330.899 147.942, 2342.079 147.470, 2347.069 146.580 C 2361.996 143.917, 2371.652 136.893, 2375.865 125.631 C 2378.774 117.856, 2378.609 112.561, 2375.250 105.929 C 2373.028 101.543, 2371.580 100.044, 2367.712 98.126 C 2363.056 95.817, 2362.081 95.739, 2332.212 95.309 C 2315.321 95.065, 2301.020 95.233, 2300.433 95.683 M 2785.671 105.181 C 2783.621 109.782, 2774.756 126.585, 2765.972 142.520 C 2757.187 158.455, 2750 171.832, 2750 172.247 C 2750 172.661, 2761.290 173, 2775.088 173 L 2800.176 173 2799.614 169.250 C 2799.305 167.188, 2798.119 159.785, 2796.979 152.799 C 2795.839 145.814, 2793.667 130.360, 2792.152 118.457 L 2789.399 96.815 2785.671 105.181 M 2183.594 106.559 C 2181.446 111.257, 2172.559 127.922, 2163.844 143.593 C 2155.130 159.264, 2148 172.292, 2148 172.543 C 2148 172.794, 2159.313 173, 2173.140 173 L 2198.280 173 2197.674 167.750 C 2197.341 164.863, 2195.910 155.075, 2194.495 146 C 2191.083 124.125, 2189 107.553, 2189 102.288 C 2189 99.930, 2188.662 98.004, 2188.250 98.009 C 2187.838 98.014, 2185.742 101.862, 2183.594 106.559" stroke="none" fill="#cc071e" fill-rule="evenodd"/><path d="M 2175.140 84.750 C 2172.968 88.463, 2165.466 101.625, 2158.468 114 C 2140.237 146.243, 2130.608 163.228, 2109.715 200 L 2091.250 232.500 2101.811 232.786 C 2107.619 232.943, 2112.889 232.873, 2113.521 232.630 C 2114.153 232.388, 2120.032 222.477, 2126.585 210.607 L 2138.500 189.025 2169.750 189.012 C 2186.938 189.006, 2201.030 189.113, 2201.067 189.250 C 2201.104 189.387, 2202.792 199.175, 2204.817 211 L 2208.500 232.500 2218.868 232.786 C 2229.223 233.072, 2229.234 233.070, 2228.681 230.786 C 2228.376 229.529, 2225.843 214.550, 2223.052 197.500 C 2220.261 180.450, 2217.084 161.325, 2215.993 155 C 2214.902 148.675, 2211.738 129.550, 2208.963 112.500 C 2206.188 95.450, 2203.681 80.713, 2203.392 79.750 C 2202.929 78.211, 2201.432 78, 2190.977 78 L 2179.089 78 2175.140 84.750 M 2280.716 85.659 C 2279.833 89.971, 2277.495 101.150, 2275.521 110.500 C 2271.579 129.168, 2270.833 132.741, 2259.022 189.500 C 2254.559 210.950, 2250.654 229.512, 2250.345 230.750 C 2249.789 232.977, 2249.890 233, 2260.392 233 C 2266.226 233, 2271 232.806, 2271 232.569 C 2271 232.096, 2283.661 170.922, 2284.538 167.159 L 2285.084 164.817 2304.292 165.159 C 2323.309 165.497, 2323.548 165.528, 2328.327 168.337 C 2336.717 173.269, 2344.663 187.156, 2356.028 216.750 L 2362.269 233 2374.025 233 L 2385.781 233 2379.522 217.668 C 2376.079 209.235, 2371.822 199.318, 2370.062 195.630 C 2365.384 185.829, 2355.821 171.994, 2351.103 168.203 C 2346.447 164.462, 2345.952 163, 2349.340 163 C 2353.723 163, 2366.718 159.158, 2373.470 155.866 C 2381.803 151.803, 2389.758 144.129, 2393.223 136.811 C 2402.408 117.411, 2397.528 93.254, 2382.663 84.543 C 2373.669 79.272, 2368.904 78.763, 2323.911 78.272 L 2282.321 77.817 2280.716 85.659 M 2437.995 78.750 C 2437.993 79.162, 2436.174 88.050, 2433.955 98.500 C 2431.735 108.950, 2429.285 120.650, 2428.511 124.500 C 2427.737 128.350, 2425.534 138.925, 2423.616 148 C 2417.611 176.411, 2406 232.175, 2406 232.605 C 2406 232.831, 2432.627 232.900, 2465.171 232.758 L 2524.342 232.500 2525.665 226.500 C 2526.393 223.200, 2527.225 219.488, 2527.513 218.250 L 2528.038 216 2479.519 216 C 2433.600 216, 2431 215.904, 2431 214.214 C 2431 212.374, 2440.630 165.476, 2441.463 163.260 C 2441.822 162.306, 2452.084 161.961, 2486.151 161.760 L 2530.372 161.500 2532.155 153.500 C 2533.135 149.100, 2533.952 145.162, 2533.969 144.750 C 2533.986 144.338, 2514.048 144, 2489.663 144 L 2445.325 144 2447.595 133.250 C 2448.844 127.338, 2451.084 116.537, 2452.575 109.250 L 2455.285 96 2500.937 96 L 2546.590 96 2548.299 87.750 C 2549.240 83.213, 2550.007 79.162, 2550.005 78.750 C 2550.002 78.338, 2524.800 78, 2494 78 C 2463.200 78, 2437.998 78.338, 2437.995 78.750 M 2583.551 78.918 C 2583.239 79.423, 2581.671 86.285, 2580.067 94.168 C 2577.526 106.654, 2572.162 132.325, 2558.372 198 C 2556.467 207.075, 2554.244 217.875, 2553.432 222 C 2552.621 226.125, 2551.711 230.287, 2551.411 231.250 C 2550.915 232.839, 2551.816 233, 2561.186 233 L 2571.507 233 2582.312 180.750 C 2588.255 152.012, 2593.976 123.378, 2595.025 117.117 C 2596.074 110.856, 2597.109 105.558, 2597.324 105.343 C 2597.539 105.128, 2598.732 107.775, 2599.975 111.226 C 2603.661 121.461, 2608.594 133.932, 2612.542 143 C 2614.577 147.675, 2617.259 153.975, 2618.501 157 C 2621.057 163.222, 2648.109 226.022, 2650.055 230.250 C 2651.316 232.990, 2651.358 233, 2661.622 233 L 2671.923 233 2672.866 229.250 C 2673.385 227.188, 2675.473 217.400, 2677.505 207.500 C 2679.538 197.600, 2682.246 184.550, 2683.523 178.500 C 2685.982 166.849, 2690.015 147.548, 2695.067 123.250 C 2696.754 115.138, 2699.189 103.550, 2700.478 97.500 C 2701.767 91.450, 2703.126 84.588, 2703.498 82.250 L 2704.176 78 2694.213 78 L 2684.250 78 2683.663 80.750 C 2675.564 118.704, 2662.656 181.666, 2660.958 191.500 C 2659.724 198.650, 2658.419 205.321, 2658.057 206.324 C 2657.610 207.568, 2656.517 205.183, 2654.621 198.824 C 2650.520 185.068, 2640.585 160.574, 2625.335 126.623 C 2617.894 110.055, 2609.972 92.338, 2607.731 87.250 L 2603.655 78 2593.887 78 C 2588.514 78, 2583.863 78.413, 2583.551 78.918 M 2765.482 104.250 C 2757.304 118.688, 2745.903 138.825, 2740.148 149 C 2734.393 159.175, 2725.985 174.025, 2721.465 182 C 2700.079 219.726, 2693 232.322, 2693 232.647 C 2693 232.841, 2698.088 233, 2704.307 233 L 2715.614 233 2727.704 211.250 L 2739.794 189.500 2771.397 189.236 C 2791.879 189.065, 2803 189.322, 2803 189.967 C 2803 190.515, 2804.575 200.173, 2806.500 211.430 C 2808.425 222.687, 2810 232.146, 2810 232.449 C 2810 232.752, 2814.500 233, 2820 233 C 2826.855 233, 2830 232.639, 2830 231.853 C 2830 230.665, 2821.369 177.955, 2810.977 115.677 C 2807.690 95.975, 2805 79.437, 2805 78.927 C 2805 78.408, 2799.580 78, 2792.676 78 L 2780.352 78 2765.482 104.250 M 2300.433 95.683 C 2299.846 96.132, 2298.137 102.350, 2296.637 109.500 C 2295.136 116.650, 2292.803 127.546, 2291.454 133.714 C 2290.104 139.881, 2289 145.619, 2289 146.464 C 2289 147.806, 2292.193 147.996, 2314.250 147.965 C 2330.899 147.942, 2342.079 147.470, 2347.069 146.580 C 2361.996 143.917, 2371.652 136.893, 2375.865 125.631 C 2378.774 117.856, 2378.609 112.561, 2375.250 105.929 C 2373.028 101.543, 2371.580 100.044, 2367.712 98.126 C 2363.056 95.817, 2362.081 95.739, 2332.212 95.309 C 2315.321 95.065, 2301.020 95.233, 2300.433 95.683 M 2785.671 105.181 C 2783.621 109.782, 2774.756 126.585, 2765.972 142.520 C 2757.187 158.455, 2750 171.832, 2750 172.247 C 2750 172.661, 2761.290 173, 2775.088 173 L 2800.176 173 2799.614 169.250 C 2799.305 167.188, 2798.119 159.785, 2796.979 152.799 C 2795.839 145.814, 2793.667 130.360, 2792.152 118.457 L 2789.399 96.815 2785.671 105.181 M 2183.594 106.559 C 2181.446 111.257, 2172.559 127.922, 2163.844 143.593 C 2155.130 159.264, 2148 172.292, 2148 172.543 C 2148 172.794, 2159.313 173, 2173.140 173 L 2198.280 173 2197.674 167.750 C 2197.341 164.863, 2195.910 155.075, 2194.495 146 C 2191.083 124.125, 2189 107.553, 2189 102.288 C 2189 99.930, 2188.662 98.004, 2188.250 98.009 C 2187.838 98.014, 2185.742 101.862, 2183.594 106.559" stroke="none" fill="#cc071e" fill-rule="evenodd"/><path d="M 1455 118.500 L 1455 233 1504.500 233 L 1554 233 1554 185.136 C 1554 157.793, 1554.424 135.039, 1554.988 132.063 C 1557.589 118.347, 1565.245 111.760, 1576.606 113.464 C 1582.638 114.368, 1587.107 117.717, 1590 123.501 L 1592.500 128.500 1592.807 180.750 L 1593.114 233 1642.557 233 L 1692 233 1692 184.106 C 1692 157.214, 1691.532 130.651, 1690.960 125.076 C 1687.874 95.006, 1676.651 72.913, 1658.416 61.009 C 1646.954 53.526, 1630.058 49, 1613.588 49 C 1591.875 49, 1563.169 65.370, 1543.765 88.818 C 1540.506 92.756, 1540.007 93.021, 1538.096 91.828 C 1536.943 91.108, 1536 90.148, 1536 89.695 C 1536 89.241, 1540.050 83.206, 1545 76.282 L 1554 63.694 1554 33.847 L 1554 4 1504.500 4 L 1455 4 1455 118.500 M 1760 4.617 C 1739.121 7.140, 1724.020 15.107, 1718.526 26.500 C 1715.837 32.074, 1715.342 42.502, 1717.462 48.887 C 1719.775 55.851, 1726.646 63.215, 1734.315 66.953 C 1745.251 72.281, 1751.751 73.490, 1769.500 73.495 C 1787.436 73.501, 1792.746 72.556, 1803.588 67.431 C 1817.069 61.059, 1823.424 52.133, 1823.473 39.500 C 1823.534 23.574, 1812.640 12.151, 1792.471 6.992 C 1785.232 5.141, 1766.813 3.794, 1760 4.617 M 1291.944 8.026 C 1240.747 10.833, 1210.414 25.681, 1200.920 52.581 C 1198.025 60.781, 1197.281 77.047, 1199.354 86.781 C 1201.728 97.925, 1206.362 106.394, 1214.521 114.500 C 1228.356 128.245, 1241.094 133.719, 1292.500 148.008 C 1312.865 153.669, 1326.425 159.108, 1334.640 164.912 C 1343.965 171.499, 1346.669 174.489, 1345.059 176.429 C 1343.983 177.725, 1343.139 177.531, 1338.534 174.932 C 1329.436 169.798, 1316.020 167.063, 1294.500 165.957 C 1259.911 164.179, 1239.546 161.465, 1216.006 155.496 C 1210.784 154.172, 1206.233 153.406, 1205.893 153.794 C 1204.830 155.007, 1194.985 223.386, 1195.763 224.152 C 1197.474 225.838, 1239.010 232.367, 1266 235.192 C 1284.999 237.180, 1341.668 236.856, 1359.779 234.655 C 1410.398 228.504, 1430.965 210.690, 1430.965 173 C 1430.965 151.073, 1422.726 133.997, 1406.641 122.591 C 1393.634 113.367, 1381.977 108.903, 1346.108 99.413 C 1309.062 89.610, 1298.238 85.321, 1285.750 75.495 C 1276.703 68.377, 1278.326 64.851, 1288.330 69.889 C 1299.647 75.588, 1318.430 78.989, 1338.711 79.011 C 1357.396 79.031, 1388.655 83.458, 1411.500 89.318 L 1420.500 91.627 1425.739 56.136 C 1428.620 36.615, 1430.783 20.449, 1430.545 20.211 C 1430.306 19.973, 1423.804 18.729, 1416.096 17.447 C 1371.464 10.025, 1322.821 6.334, 1291.944 8.026 M 2007.500 49.589 C 1991.274 51.878, 1980.220 55.934, 1968.085 64.051 C 1958.654 70.359, 1948.288 80.056, 1941.828 88.612 C 1939.590 91.575, 1937.434 94, 1937.035 94 C 1936.636 94, 1935.506 93.112, 1934.523 92.026 C 1932.454 89.740, 1931.631 91.369, 1943.360 74.535 C 1950.533 64.240, 1951 63.247, 1951 58.285 L 1951 53 1901 53 L 1851 53 1851 167.500 L 1851 282 1901 282 L 1951 282 1951 252.417 L 1951 222.834 1942.334 210.667 C 1937.567 203.975, 1933.284 197.994, 1932.816 197.376 C 1932.276 196.663, 1932.905 195.637, 1934.541 194.565 C 1937.052 192.920, 1937.168 192.948, 1939.199 195.689 C 1944.038 202.220, 1960.675 217.355, 1969.161 222.945 C 1985.169 233.491, 2000.515 237.852, 2017.190 236.593 C 2045.174 234.481, 2065.082 222.597, 2076.254 201.336 C 2084.333 185.962, 2088 167.905, 2088 143.500 C 2088 126.602, 2086.032 111.418, 2082.401 100.294 C 2073.998 74.550, 2057.053 57.285, 2034.500 51.488 C 2028.376 49.914, 2012.909 48.826, 2007.500 49.589 M 1719 152.500 L 1719 233 1768.988 233 L 1818.977 233 1819.238 152.500 C 1819.423 95.713, 1819.184 72, 1818.428 72 C 1817.838 72, 1814.913 73.321, 1811.928 74.935 C 1798.633 82.126, 1774.901 86.059, 1757.271 83.995 C 1746.733 82.762, 1732.044 78.369, 1725.322 74.441 C 1723.024 73.099, 1720.661 72, 1720.072 72 C 1719.318 72, 1719 95.899, 1719 152.500 M 2312.750 95.747 C 2319.488 95.920, 2330.512 95.920, 2337.250 95.747 C 2343.988 95.574, 2338.475 95.432, 2325 95.432 C 2311.525 95.432, 2306.012 95.574, 2312.750 95.747 M 1963.771 114.143 C 1954.661 116.698, 1950.533 126.818, 1951.181 145.003 C 1951.555 155.482, 1951.902 157.295, 1954.549 162.593 C 1958.393 170.288, 1963.742 173.405, 1971.791 172.639 C 1979.123 171.942, 1983.014 169.434, 1986 163.483 C 1990.562 154.390, 1989.913 128.319, 1984.921 120.110 C 1981.538 114.548, 1971.960 111.845, 1963.771 114.143" stroke="none" fill="#7b8083" fill-rule="evenodd"/><path d="M 2175.140 84.750 C 2172.968 88.463, 2165.466 101.625, 2158.468 114 C 2140.237 146.243, 2130.608 163.228, 2109.715 200 L 2091.250 232.500 2101.811 232.786 C 2107.619 232.943, 2112.889 232.873, 2113.521 232.630 C 2114.153 232.388, 2120.032 222.477, 2126.585 210.607 L 2138.500 189.025 2169.750 189.012 C 2186.938 189.006, 2201.030 189.113, 2201.067 189.250 C 2201.104 189.387, 2202.792 199.175, 2204.817 211 L 2208.500 232.500 2218.868 232.786 C 2229.223 233.072, 2229.234 233.070, 2228.681 230.786 C 2228.376 229.529, 2225.843 214.550, 2223.052 197.500 C 2220.261 180.450, 2217.084 161.325, 2215.993 155 C 2214.902 148.675, 2211.738 129.550, 2208.963 112.500 C 2206.188 95.450, 2203.681 80.713, 2203.392 79.750 C 2202.929 78.211, 2201.432 78, 2190.977 78 L 2179.089 78 2175.140 84.750 M 2280.716 85.659 C 2279.833 89.971, 2277.495 101.150, 2275.521 110.500 C 2271.579 129.168, 2270.833 132.741, 2259.022 189.500 C 2254.559 210.950, 2250.654 229.512, 2250.345 230.750 C 2249.789 232.977, 2249.890 233, 2260.392 233 C 2266.226 233, 2271 232.806, 2271 232.569 C 2271 232.096, 2283.661 170.922, 2284.538 167.159 L 2285.084 164.817 2304.292 165.159 C 2323.309 165.497, 2323.548 165.528, 2328.327 168.337 C 2336.717 173.269, 2344.663 187.156, 2356.028 216.750 L 2362.269 233 2374.025 233 L 2385.781 233 2379.522 217.668 C 2376.079 209.235, 2371.822 199.318, 2370.062 195.630 C 2365.384 185.829, 2355.821 171.994, 2351.103 168.203 C 2346.447 164.462, 2345.952 163, 2349.340 163 C 2353.723 163, 2366.718 159.158, 2373.470 155.866 C 2381.803 151.803, 2389.758 144.129, 2393.223 136.811 C 2402.408 117.411, 2397.528 93.254, 2382.663 84.543 C 2373.669 79.272, 2368.904 78.763, 2323.911 78.272 L 2282.321 77.817 2280.716 85.659 M 2437.995 78.750 C 2437.993 79.162, 2436.174 88.050, 2433.955 98.500 C 2431.735 108.950, 2429.285 120.650, 2428.511 124.500 C 2427.737 128.350, 2425.534 138.925, 2423.616 148 C 2417.611 176.411, 2406 232.175, 2406 232.605 C 2406 232.831, 2432.627 232.900, 2465.171 232.758 L 2524.342 232.500 2525.665 226.500 C 2526.393 223.200, 2527.225 219.488, 2527.513 218.250 L 2528.038 216 2479.519 216 C 2433.600 216, 2431 215.904, 2431 214.214 C 2431 212.374, 2440.630 165.476, 2441.463 163.260 C 2441.822 162.306, 2452.084 161.961, 2486.151 161.760 L 2530.372 161.500 2532.155 153.500 C 2533.135 149.100, 2533.952 145.162, 2533.969 144.750 C 2533.986 144.338, 2514.048 144, 2489.663 144 L 2445.325 144 2447.595 133.250 C 2448.844 127.338, 2451.084 116.537, 2452.575 109.250 L 2455.285 96 2500.937 96 L 2546.590 96 2548.299 87.750 C 2549.240 83.213, 2550.007 79.162, 2550.005 78.750 C 2550.002 78.338, 2524.800 78, 2494 78 C 2463.200 78, 2437.998 78.338, 2437.995 78.750 M 2583.551 78.918 C 2583.239 79.423, 2581.671 86.285, 2580.067 94.168 C 2577.526 106.654, 2572.162 132.325, 2558.372 198 C 2556.467 207.075, 2554.244 217.875, 2553.432 222 C 2552.621 226.125, 2551.711 230.287, 2551.411 231.250 C 2550.915 232.839, 2551.816 233, 2561.186 233 L 2571.507 233 2582.312 180.750 C 2588.255 152.012, 2593.976 123.378, 2595.025 117.117 C 2596.074 110.856, 2597.109 105.558, 2597.324 105.343 C 2597.539 105.128, 2598.732 107.775, 2599.975 111.226 C 2603.661 121.461, 2608.594 133.932, 2612.542 143 C 2614.577 147.675, 2617.259 153.975, 2618.501 157 C 2621.057 163.222, 2648.109 226.022, 2650.055 230.250 C 2651.316 232.990, 2651.358 233, 2661.622 233 L 2671.923 233 2672.866 229.250 C 2673.385 227.188, 2675.473 217.400, 2677.505 207.500 C 2679.538 197.600, 2682.246 184.550, 2683.523 178.500 C 2685.982 166.849, 2690.015 147.548, 2695.067 123.250 C 2696.754 115.138, 2699.189 103.550, 2700.478 97.500 C 2701.767 91.450, 2703.126 84.588, 2703.498 82.250 L 2704.176 78 2694.213 78 L 2684.250 78 2683.663 80.750 C 2675.564 118.704, 2662.656 181.666, 2660.958 191.500 C 2659.724 198.650, 2658.419 205.321, 2658.057 206.324 C 2657.610 207.568, 2656.517 205.183, 2654.621 198.824 C 2650.520 185.068, 2640.585 160.574, 2625.335 126.623 C 2617.894 110.055, 2609.972 92.338, 2607.731 87.250 L 2603.655 78 2593.887 78 C 2588.514 78, 2583.863 78.413, 2583.551 78.918 M 2765.482 104.250 C 2757.304 118.688, 2745.903 138.825, 2740.148 149 C 2734.393 159.175, 2725.985 174.025, 2721.465 182 C 2700.079 219.726, 2693 232.322, 2693 232.647 C 2693 232.841, 2698.088 233, 2704.307 233 L 2715.614 233 2727.704 211.250 L 2739.794 189.500 2771.397 189.236 C 2791.879 189.065, 2803 189.322, 2803 189.967 C 2803 190.515, 2804.575 200.173, 2806.500 211.430 C 2808.425 222.687, 2810 232.146, 2810 232.449 C 2810 232.752, 2814.500 233, 2820 233 C 2826.855 233, 2830 232.639, 2830 231.853 C 2830 230.665, 2821.369 177.955, 2810.977 115.677 C 2807.690 95.975, 2805 79.437, 2805 78.927 C 2805 78.408, 2799.580 78, 2792.676 78 L 2780.352 78 2765.482 104.250 M 2300.433 95.683 C 2299.846 96.132, 2298.137 102.350, 2296.637 109.500 C 2295.136 116.650, 2292.803 127.546, 2291.454 133.714 C 2290.104 139.881, 2289 145.619, 2289 146.464 C 2289 147.806, 2292.193 147.996, 2314.250 147.965 C 2330.899 147.942, 2342.079 147.470, 2347.069 146.580 C 2361.996 143.917, 2371.652 136.893, 2375.865 125.631 C 2378.774 117.856, 2378.609 112.561, 2375.250 105.929 C 2373.028 101.543, 2371.580 100.044, 2367.712 98.126 C 2363.056 95.817, 2362.081 95.739, 2332.212 95.309 C 2315.321 95.065, 2301.020 95.233, 2300.433 95.683 M 2785.671 105.181 C 2783.621 109.782, 2774.756 126.585, 2765.972 142.520 C 2757.187 158.455, 2750 171.832, 2750 172.247 C 2750 172.661, 2761.290 173, 2775.088 173 L 2800.176 173 2799.614 169.250 C 2799.305 167.188, 2798.119 159.785, 2796.979 152.799 C 2795.839 145.814, 2793.667 130.360, 2792.152 118.457 L 2789.399 96.815 2785.671 105.181 M 2183.594 106.559 C 2181.446 111.257, 2172.559 127.922, 2163.844 143.593 C 2155.130 159.264, 2148 172.292, 2148 172.543 C 2148 172.794, 2159.313 173, 2173.140 173 L 2198.280 173 2197.674 167.750 C 2197.341 164.863, 2195.910 155.075, 2194.495 146 C 2191.083 124.125, 2189 107.553, 2189 102.288 C 2189 99.930, 2188.662 98.004, 2188.250 98.009 C 2187.838 98.014, 2185.742 101.862, 2183.594 106.559" stroke="none" fill="#cc071e" fill-rule="evenodd"/><path d="M 1455 118.500 L 1455 233 1504.500 233 L 1554 233 1554 185.136 C 1554 157.793, 1554.424 135.039, 1554.988 132.063 C 1557.589 118.347, 1565.245 111.760, 1576.606 113.464 C 1582.638 114.368, 1587.107 117.717, 1590 123.501 L 1592.500 128.500 1592.807 180.750 L 1593.114 233 1642.557 233 L 1692 233 1692 184.106 C 1692 157.214, 1691.532 130.651, 1690.960 125.076 C 1687.874 95.006, 1676.651 72.913, 1658.416 61.009 C 1646.954 53.526, 1630.058 49, 1613.588 49 C 1591.875 49, 1563.169 65.370, 1543.765 88.818 C 1540.506 92.756, 1540.007 93.021, 1538.096 91.828 C 1536.943 91.108, 1536 90.148, 1536 89.695 C 1536 89.241, 1540.050 83.206, 1545 76.282 L 1554 63.694 1554 33.847 L 1554 4 1504.500 4 L 1455 4 1455 118.500 M 1760 4.617 C 1739.121 7.140, 1724.020 15.107, 1718.526 26.500 C 1715.837 32.074, 1715.342 42.502, 1717.462 48.887 C 1719.775 55.851, 1726.646 63.215, 1734.315 66.953 C 1745.251 72.281, 1751.751 73.490, 1769.500 73.495 C 1787.436 73.501, 1792.746 72.556, 1803.588 67.431 C 1817.069 61.059, 1823.424 52.133, 1823.473 39.500 C 1823.534 23.574, 1812.640 12.151, 1792.471 6.992 C 1785.232 5.141, 1766.813 3.794, 1760 4.617 M 1291.944 8.026 C 1240.747 10.833, 1210.414 25.681, 1200.920 52.581 C 1198.025 60.781, 1197.281 77.047, 1199.354 86.781 C 1201.728 97.925, 1206.362 106.394, 1214.521 114.500 C 1228.356 128.245, 1241.094 133.719, 1292.500 148.008 C 1312.865 153.669, 1326.425 159.108, 1334.640 164.912 C 1343.965 171.499, 1346.669 174.489, 1345.059 176.429 C 1343.983 177.725, 1343.139 177.531, 1338.534 174.932 C 1329.436 169.798, 1316.020 167.063, 1294.500 165.957 C 1259.911 164.179, 1239.546 161.465, 1216.006 155.496 C 1210.784 154.172, 1206.233 153.406, 1205.893 153.794 C 1204.830 155.007, 1194.985 223.386, 1195.763 224.152 C 1197.474 225.838, 1239.010 232.367, 1266 235.192 C 1284.999 237.180, 1341.668 236.856, 1359.779 234.655 C 1410.398 228.504, 1430.965 210.690, 1430.965 173 C 1430.965 151.073, 1422.726 133.997, 1406.641 122.591 C 1393.634 113.367, 1381.977 108.903, 1346.108 99.413 C 1309.062 89.610, 1298.238 85.321, 1285.750 75.495 C 1276.703 68.377, 1278.326 64.851, 1288.330 69.889 C 1299.647 75.588, 1318.430 78.989, 1338.711 79.011 C 1357.396 79.031, 1388.655 83.458, 1411.500 89.318 L 1420.500 91.627 1425.739 56.136 C 1428.620 36.615, 1430.783 20.449, 1430.545 20.211 C 1430.306 19.973, 1423.804 18.729, 1416.096 17.447 C 1371.464 10.025, 1322.821 6.334, 1291.944 8.026 M 2007.500 49.589 C 1991.274 51.878, 1980.220 55.934, 1968.085 64.051 C 1958.654 70.359, 1948.288 80.056, 1941.828 88.612 C 1939.590 91.575, 1937.434 94, 1937.035 94 C 1936.636 94, 1935.506 93.112, 1934.523 92.026 C 1932.454 89.740, 1931.631 91.369, 1943.360 74.535 C 1950.533 64.240, 1951 63.247, 1951 58.285 L 1951 53 1901 53 L 1851 53 1851 167.500 L 1851 282 1901 282 L 1951 282 1951 252.417 L 1951 222.834 1942.334 210.667 C 1937.567 203.975, 1933.284 197.994, 1932.816 197.376 C 1932.276 196.663, 1932.905 195.637, 1934.541 194.565 C 1937.052 192.920, 1937.168 192.948, 1939.199 195.689 C 1944.038 202.220, 1960.675 217.355, 1969.161 222.945 C 1985.169 233.491, 2000.515 237.852, 2017.190 236.593 C 2045.174 234.481, 2065.082 222.597, 2076.254 201.336 C 2084.333 185.962, 2088 167.905, 2088 143.500 C 2088 126.602, 2086.032 111.418, 2082.401 100.294 C 2073.998 74.550, 2057.053 57.285, 2034.500 51.488 C 2028.376 49.914, 2012.909 48.826, 2007.500 49.589 M 1719 152.500 L 1719 233 1768.988 233 L 1818.977 233 1819.238 152.500 C 1819.423 95.713, 1819.184 72, 1818.428 72 C 1817.838 72, 1814.913 73.321, 1811.928 74.935 C 1798.633 82.126, 1774.901 86.059, 1757.271 83.995 C 1746.733 82.762, 1732.044 78.369, 1725.322 74.441 C 1723.024 73.099, 1720.661 72, 1720.072 72 C 1719.318 72, 1719 95.899, 1719 152.500 M 2312.750 95.747 C 2319.488 95.920, 2330.512 95.920, 2337.250 95.747 C 2343.988 95.574, 2338.475 95.432, 2325 95.432 C 2311.525 95.432, 2306.012 95.574, 2312.750 95.747 M 1963.771 114.143 C 1954.661 116.698, 1950.533 126.818, 1951.181 145.003 C 1951.555 155.482, 1951.902 157.295, 1954.549 162.593 C 1958.393 170.288, 1963.742 173.405, 1971.791 172.639 C 1979.123 171.942, 1983.014 169.434, 1986 163.483 C 1990.562 154.390, 1989.913 128.319, 1984.921 120.110 C 1981.538 114.548, 1971.960 111.845, 1963.771 114.143" stroke="none" fill="#7b8083" fill-rule="evenodd"/><path d="M 847 118.500 L 847 233 897 233 L 947 233 947 118.500 L 947 4 897 4 L 847 4 847 118.500 M 8 122.500 L 8 233 87.250 232.977 C 130.838 232.965, 172.125 232.519, 179 231.987 C 209.683 229.612, 227.497 223.570, 238.680 211.745 C 244.838 205.234, 247.504 200.237, 249.606 191.271 C 253.096 176.386, 251.195 158.328, 244.999 147.498 C 239.320 137.572, 226.857 128.193, 215.162 125.044 C 211.660 124.101, 210.933 123.507, 211.188 121.800 C 211.410 120.313, 212.716 119.352, 215.714 118.471 C 229.352 114.462, 240.122 102.242, 244.631 85.661 C 246.770 77.796, 247.494 62.199, 246.061 54.831 C 242.493 36.486, 230.026 23.820, 208.902 17.083 C 193.568 12.192, 189.486 12.008, 95.750 12.004 L 8 12 8 122.500 M 526.336 34.504 L 507.172 53 496.586 53 L 486 53 486 77.500 L 486 102 493.500 102 L 501 102 501.009 128.750 C 501.022 169.972, 503.217 187.151, 510.370 201.996 C 514.062 209.657, 523.181 219.241, 530.535 223.188 C 537.308 226.823, 550.577 230.553, 561.500 231.891 C 574.643 233.502, 647.140 233.385, 649.169 231.750 C 650.460 230.709, 650.913 225.393, 651.874 200 C 652.509 183.225, 653.022 167.813, 653.014 165.750 L 653 162 638.750 161.969 C 613.725 161.915, 606.408 160.160, 603.054 153.410 C 601.814 150.914, 600.652 135.548, 600.069 113.947 C 600.002 111.466, 599.716 111.360, 589.750 110.142 C 571.181 107.873, 571.854 108.066, 572.197 105.114 L 572.500 102.500 608.250 102.237 L 644 101.975 644 77.487 L 644 53 622 53 L 600 53 600 34.500 L 600 16 572.750 16.004 L 545.500 16.008 526.336 34.504 M 700.321 34.500 L 681.171 53 670.586 53 L 660 53 660 77.500 L 660 102 667.500 102 L 675 102 675.009 128.750 C 675.022 169.940, 677.203 187.205, 684.223 201.696 C 688.095 209.688, 697.154 219.287, 704.522 223.206 C 711.348 226.836, 724.625 230.559, 735.500 231.891 C 748.643 233.502, 821.140 233.385, 823.169 231.750 C 824.460 230.709, 824.913 225.393, 825.874 200 C 826.509 183.225, 827.022 167.813, 827.014 165.750 L 827 162 812.750 161.969 C 787.723 161.915, 780.398 160.158, 777.061 153.410 C 775.783 150.827, 774.347 132.813, 774.074 115.947 L 774 111.395 763.750 110.142 C 745.181 107.873, 745.854 108.066, 746.197 105.114 L 746.500 102.500 782.250 102.237 L 818 101.975 818 77.487 L 818 53 796 53 L 774 53 774 34.500 L 774 16 746.736 16 L 719.471 16 700.321 34.500 M 337 49.615 C 316.980 51.422, 290.689 55.583, 278.426 58.885 L 274.358 59.981 278.196 93.673 C 280.306 112.205, 282.138 127.461, 282.267 127.577 C 282.395 127.693, 288.754 126.500, 296.399 124.926 C 304.043 123.353, 315.864 121.526, 322.667 120.866 C 350.808 118.138, 378.641 124.702, 392.630 137.367 C 397.184 141.490, 397.319 141.759, 395.359 142.808 C 393.645 143.725, 391.800 143.157, 384.399 139.433 C 370.588 132.484, 362.457 130.726, 344 130.702 C 313.593 130.661, 291.473 138.081, 277.722 152.933 C 268.974 162.383, 264.985 173.064, 265.017 186.960 C 265.088 217.645, 281.331 234.089, 314.316 236.867 C 325.547 237.813, 336.094 236.981, 344.805 234.464 C 358.240 230.582, 376.770 218.055, 386.422 206.331 C 391.513 200.147, 392.670 199.529, 394.304 202.120 C 395.118 203.410, 393.766 205.730, 387.663 213.520 C 380.510 222.649, 380 223.623, 380 228.150 L 380 233 430.018 233 L 480.037 233 479.897 187.750 C 479.739 136.352, 479.034 124.129, 475.512 111.743 C 465.627 76.981, 440.418 58.436, 393.500 51.412 C 383.879 49.971, 346.293 48.776, 337 49.615 M 1051.208 51.071 C 1023.415 54.681, 998.210 67.974, 984.449 86.280 C 971.111 104.024, 965.024 126.369, 966.330 152.800 C 968.616 199.059, 988.671 223.493, 1032.021 232.835 C 1060.898 239.057, 1109.402 238.199, 1161.309 230.546 C 1170.004 229.264, 1177.278 228.054, 1177.474 227.858 C 1177.914 227.415, 1169.277 168.944, 1168.683 168.350 C 1168.448 168.114, 1159.985 168.900, 1149.877 170.095 C 1128.455 172.628, 1100.970 173.118, 1091 171.145 C 1087.425 170.437, 1079.234 168.101, 1072.797 165.952 C 1066.361 163.804, 1057.249 161.291, 1052.547 160.367 C 1044.727 158.830, 1044 158.488, 1044 156.344 L 1044 154 1112.404 154 L 1180.808 154 1181.538 143.289 C 1183.565 113.543, 1178.534 96.084, 1163.275 79.909 C 1148.980 64.755, 1129.169 55.483, 1102.683 51.550 C 1091.474 49.886, 1062.415 49.615, 1051.208 51.071 M 108 91.620 L 108 104.241 126.787 103.837 C 148.582 103.368, 151.483 102.473, 153.786 95.510 C 155.834 89.318, 153.742 84.126, 148.038 81.250 C 143.910 79.168, 142.246 79, 125.788 79 L 108 79 108 91.620 M 1074.500 116.506 C 1072.300 117.311, 1070.406 117.977, 1070.292 117.985 C 1069.518 118.041, 1065.070 127.104, 1064.519 129.750 L 1063.841 133 1081.046 133 L 1098.250 133 1097.603 129.766 C 1096.720 125.349, 1092.590 119.353, 1089.254 117.646 C 1084.763 115.348, 1078.902 114.894, 1074.500 116.506 M 108 152.388 L 108 166 120.750 165.967 C 144.838 165.905, 151.244 164.063, 153.786 156.466 C 155.817 150.395, 153.739 145.212, 148 142.033 C 143.772 139.691, 142.425 139.517, 125.750 139.159 L 108 138.777 108 152.388 M 367.500 160.741 C 362.252 161.944, 358.963 168.281, 359.062 177 C 359.175 187.034, 363.473 192.370, 371.346 192.251 C 379.447 192.129, 380 191.352, 380 180.090 C 380 167.851, 379.299 164.223, 376.611 162.551 C 373.970 160.908, 370.112 160.142, 367.500 160.741" stroke="none" fill="#5b89ee" fill-rule="evenodd"/></svg>