<?xml version="1.0" encoding="UTF-8"?>
<svg version="1.1" xmlns="http://www.w3.org/2000/svg" width="4000" height="4000">
<path d="M0 0 C2.88868989 1.3906829 4.9699231 2.7205925 7.24084854 4.99475288 C7.86189036 5.6118126 8.48293217 6.22887232 9.12279344 6.86463082 C9.79594897 7.54361204 10.4691045 8.22259325 11.16265869 8.92214966 C11.88478161 9.64256372 12.60690452 10.36297779 13.35090995 11.10522258 C15.77550541 13.52651718 18.19287172 15.95490325 20.61035156 18.38330078 C22.34448016 20.11799336 24.07904895 21.85224598 25.81402588 23.58609009 C29.5514677 27.3230761 33.28581901 31.06310956 37.01740265 34.80594254 C42.41264844 40.21744238 47.81340839 45.62341119 53.21553013 51.028046 C61.97996055 59.79685367 70.73991534 68.57011838 79.49707031 77.34619141 C88.00384135 85.87132046 96.51271043 94.39434643 105.02441406 102.91455078 C105.54907439 103.43973656 106.07373472 103.96492233 106.61429384 104.50602283 C109.24637343 107.14071248 111.87849436 109.77536083 114.51063585 112.40998864 C136.34683849 134.26692471 158.17570876 156.13117001 180 178 C178.4174739 181.83244013 175.99214891 184.25760361 173.07856857 187.17077376 C172.56957989 187.68242094 172.06059122 188.19406812 171.53617864 188.72121977 C169.816788 190.44711636 168.09031836 192.16575452 166.36383903 193.88455796 C165.11507028 195.13505698 163.86674052 196.38599451 162.61881146 197.63733151 C159.16064414 201.10236164 155.69621804 204.561076 152.23081118 208.01886372 C148.45823397 211.78534026 144.691452 215.55760485 140.92394096 219.3291477 C134.28540909 225.97316531 127.64313413 232.61342272 120.99846457 239.2513018 C111.0511933 249.18844716 101.1096783 259.13133649 91.16931153 269.07538799 C74.23117813 286.01946376 57.28829871 302.95878662 40.34285736 319.89555359 C23.16116268 337.0684854 5.98165034 354.24359603 -11.19517899 371.42139435 C-11.73636964 371.96261359 -12.2775603 372.50383283 -12.83515068 373.06145265 C-17.79461604 378.02118151 -22.75405703 382.98093473 -27.713469 387.94071697 C-40.151091 400.3792653 -52.58904371 412.81748291 -65.02721572 425.25548124 C-65.88227247 426.11052675 -65.88227247 426.11052675 -66.7546031 426.98284591 C-94.87362597 455.10144016 -122.99640306 483.21627886 -151.1194191 511.33087921 C-161.0225985 521.23110031 -170.9257601 531.13133923 -180.82885599 541.03164387 C-181.4444462 541.64706054 -182.0600364 542.26247721 -182.69428085 542.89654287 C-211.19901552 571.39328577 -239.70118705 599.89259172 -268.20270045 628.39255639 C-270.06624966 630.25600408 -271.92980007 632.11945055 -273.79335079 633.98289672 C-285.03043386 645.2193516 -296.2674902 656.4558332 -307.50451569 667.69234567 C-335.44096624 695.62751846 -363.37773738 723.56237064 -391.31472588 751.49700546 C-391.95075714 752.13298346 -392.5867884 752.76896145 -393.24209334 753.42421151 C-434.44321408 794.62187654 -475.64565458 835.81822136 -516.8491993 877.01346207 C-517.50714743 877.67127762 -518.16509556 878.32909317 -518.84298151 879.00684253 C-538.87182614 899.03164571 -558.9007684 919.05635123 -578.92972976 939.08103764 C-601.0943423 961.24092027 -623.25893818 983.40081956 -645.42346191 1005.56079102 C-646.08994929 1006.22714139 -646.75643666 1006.89349177 -647.44312063 1007.58003458 C-710.73416199 1070.85807722 -774.02251543 1134.13880792 -837.31017316 1197.42023469 C-839.99053225 1200.10032949 -842.67089211 1202.78042352 -845.35125202 1205.46051751 C-870.01634181 1230.12316051 -894.68140004 1254.78583508 -919.34641863 1279.44854929 C-920.33020888 1280.43224762 -920.33020888 1280.43224762 -921.33387368 1281.43581864 C-923.3196418 1283.42140123 -925.3054099 1285.40698383 -927.291178 1287.39256643 C-980.93891409 1341.03529071 -1034.58692546 1394.67773968 -1088.23511515 1448.32001031 C-1090.12802246 1450.21270892 -1092.02092956 1452.10540773 -1093.9138366 1453.99810661 C-1155.39775776 1515.47526484 -1216.88217477 1576.95192709 -1435.00048828 1795.03222656 C-1435.53283661 1795.56447497 -1436.06518494 1796.09672338 -1436.61366504 1796.64510053 C-1490.40891974 1850.43025735 -1544.20434827 1904.2152403 -1598 1958 C-1602.26934543 1956.04476595 -1605.18846541 1953.08970454 -1608.46113187 1949.79301846 C-1609.11218586 1949.1451418 -1609.76323984 1948.49726514 -1610.43402274 1947.82975586 C-1612.6338374 1945.63820999 -1614.82641199 1943.43955836 -1617.01913929 1941.24092293 C-1618.60972743 1939.65332901 -1620.20075264 1938.06617289 -1621.79217717 1936.47941738 C-1626.19554719 1932.08638905 -1630.5926111 1927.68709458 -1634.98872877 1923.28681042 C-1639.26895307 1919.00447375 -1643.55385777 1914.72682865 -1647.83862999 1910.44904376 C-1656.71294952 1901.5888493 -1665.58247305 1892.72386775 -1674.4494133 1883.85628891 C-1683.43865886 1874.86642207 -1692.43004645 1865.87870591 -1701.42406654 1856.89361572 C-1701.99152677 1856.32671528 -1702.558987 1855.75981484 -1703.143643 1855.17573559 C-1705.4547128 1852.86695735 -1707.76579599 1850.55819251 -1710.07689669 1848.2494452 C-1734.2040695 1824.14680067 -1758.3240464 1800.03696375 -1782.44138727 1775.92448176 C-1785.038445 1773.32794773 -1787.6355038 1770.73141476 -1790.23256326 1768.13488245 C-1791.19921133 1767.16842797 -1791.19921133 1767.16842797 -1792.18538764 1766.18244916 C-1806.45508079 1751.91565953 -1820.7264003 1737.65049727 -1834.99796408 1723.38557894 C-1840.871231 1717.51503539 -1846.74445176 1711.64444567 -1852.61767262 1705.77385604 C-1853.26657451 1705.12524507 -1853.9154764 1704.47663409 -1854.58404198 1703.80836824 C-1891.77624376 1666.63279229 -1928.96605986 1629.45483115 -1966.15116596 1592.27215767 C-1967.54320738 1590.88021088 -1968.935249 1589.48826427 -1970.3272908 1588.09631786 C-1976.61251113 1581.81152529 -1982.89772027 1575.52672153 -1989.18292934 1569.24191769 C-1991.98577754 1566.43925108 -1994.7886274 1563.63658612 -1997.5914776 1560.83392149 C-1998.99435485 1559.43113626 -2000.39723129 1558.02835022 -2001.80010692 1556.62556336 C-2046.17668533 1512.25180042 -2090.56271358 1467.88751002 -2134.95629883 1423.53076172 C-2168.05737768 1390.45714418 -2201.15767037 1357.38274481 -2234.24831676 1324.29868889 C-2234.91392012 1323.63321897 -2235.57952347 1322.96774905 -2236.26529662 1322.28211338 C-2250.87436435 1307.67591749 -2265.48270498 1293.06899458 -2280.09037118 1278.46139703 C-2285.31676043 1273.23504747 -2290.54320832 1268.00875655 -2295.76968665 1262.78249608 C-2297.06996539 1261.482271 -2298.37024136 1260.18204314 -2299.67051455 1258.88181252 C-2320.41682878 1238.13624274 -2341.17060465 1217.39815694 -2361.92813154 1196.66380682 C-2382.82450884 1175.79065875 -2403.71290501 1154.90955835 -2424.59031716 1134.01744034 C-2427.4711158 1131.13461384 -2430.35200145 1128.25187431 -2433.23293877 1125.3691864 C-2434.08009658 1124.5215035 -2434.08009658 1124.5215035 -2434.9443687 1123.6566957 C-2443.91029334 1114.68567172 -2452.88461557 1105.72309695 -2461.86241316 1096.76395656 C-2470.67646989 1087.96786945 -2479.48166208 1079.16299255 -2488.27731036 1070.34849704 C-2492.98830565 1065.62789864 -2497.70356699 1060.91170918 -2502.42961112 1056.20616235 C-2506.7196099 1051.93461327 -2510.99816693 1047.65195641 -2515.26746367 1043.35971887 C-2516.81328385 1041.80970403 -2518.36340575 1040.26396586 -2519.91806425 1038.72281597 C-2522.0122266 1036.64566535 -2524.09067558 1034.55400703 -2526.16561395 1032.45767987 C-2526.78075584 1031.8548461 -2527.39589772 1031.25201232 -2528.02968028 1030.63091086 C-2529.6800287 1028.94427247 -2529.6800287 1028.94427247 -2532 1026 C-2531.56031016 1022.68683162 -2530.45493241 1021.08082301 -2528.11267757 1018.74353409 C-2527.49412551 1018.11900888 -2526.87557344 1017.49448367 -2526.23827738 1016.85103345 C-2525.20959987 1015.83546373 -2525.20959987 1015.83546373 -2524.16014099 1014.79937744 C-2523.4364978 1014.07317097 -2522.71285461 1013.34696451 -2521.96728283 1012.59875178 C-2519.53141257 1010.15792517 -2517.08494626 1007.72800157 -2514.63842773 1005.29785156 C-2512.89381589 1003.55408559 -2511.14986369 1001.80965944 -2509.40652466 1000.06462097 C-2505.64698767 996.30439999 -2501.88289172 992.54883421 -2498.1145916 988.79740143 C-2492.6662647 983.37344603 -2487.2262315 977.94123471 -2481.78819288 972.50696668 C-2472.96531948 963.69066067 -2464.1357661 954.88107625 -2455.30200195 946.07568359 C-2446.72036535 937.52158013 -2438.14188235 928.96433436 -2429.56762695 920.40283203 C-2429.03919146 919.87518471 -2428.51075597 919.34753738 -2427.96630727 918.80390075 C-2425.31534574 916.1568543 -2422.66444615 913.50974584 -2420.01357734 910.86260653 C-2398.01864581 888.89877985 -2376.01275931 866.94595983 -2354 845 C-2347.05388548 850.68752058 -2340.80534669 857.05705566 -2334.47248936 863.40446281 C-2333.19058878 864.68562326 -2331.90846876 865.96656418 -2330.6261498 867.24730587 C-2327.09670012 870.77368799 -2323.57037767 874.30318291 -2320.04454892 877.83318489 C-2316.21064873 881.67052 -2312.37384598 885.50495109 -2308.53740782 889.3397485 C-2301.81200391 896.06307824 -2295.08846177 902.78826532 -2288.36612892 909.5146656 C-2278.37023246 919.51659343 -2268.3714741 929.51565657 -2258.37212252 939.51413002 C-2241.55226621 956.33267188 -2224.73473647 973.15353835 -2207.91853523 989.97573471 C-2191.26547609 1006.63471663 -2174.61138215 1023.29266294 -2157.95590019 1039.94922256 C-2157.1799714 1040.72520298 -2157.1799714 1040.72520298 -2156.38836727 1041.51685977 C-2151.6637458 1046.24179443 -2146.93911158 1050.96671634 -2142.21446206 1055.69162295 C-2130.46959851 1067.43712589 -2118.72489494 1079.18278878 -2106.98029995 1090.92856026 C-2106.17807207 1091.73086811 -2106.17807207 1091.73086811 -2105.35963757 1092.5493842 C-2079.34484308 1118.56680012 -2053.3318919 1144.58605881 -2027.3190918 1170.60546875 C-2018.29225301 1179.6345992 -2009.26540608 1188.6637215 -2000.23852539 1197.69281006 C-1999.39875148 1198.5327894 -1999.39875148 1198.5327894 -1998.54201243 1199.38973801 C-1972.51518422 1225.42291051 -1946.48704655 1251.45477363 -1920.45857108 1277.48629916 C-1918.76874738 1279.17632093 -1917.07892423 1280.86634327 -1915.3891012 1282.55636572 C-1904.19053888 1293.75624782 -1892.99195399 1304.95610736 -1881.79335399 1316.15595179 C-1859.51098928 1338.44079299 -1837.22875717 1360.72576678 -1814.94661617 1383.01083166 C-1813.88548658 1384.07210049 -1812.82435689 1385.13336923 -1811.76322711 1386.19463788 C-1753.68727968 1444.2781875 -1695.61368638 1502.36409069 -1600 1598 C-1596.38126799 1596.46887497 -1594.06868605 1594.31846178 -1591.30274878 1591.55209111 C-1590.84241885 1591.09441968 -1590.38208891 1590.63674826 -1589.90780959 1590.165208 C-1588.35695777 1588.62085609 -1586.81336694 1587.06944338 -1585.26960731 1585.5180043 C-1584.14536766 1584.39549512 -1583.02068954 1583.27342495 -1581.8956123 1582.15175527 C-1578.78174702 1579.04474978 -1575.6741967 1575.93149278 -1572.5675735 1572.8172484 C-1569.18297136 1569.4265436 -1565.79257931 1566.04163668 -1562.40291011 1562.65599877 C-1556.43216285 1556.69073632 -1550.46517534 1550.72173317 -1544.50056669 1544.75033306 C-1535.57133469 1535.81097369 -1526.63635779 1526.87737292 -1517.700219 1517.94491852 C-1502.47346571 1502.72410713 -1487.25147116 1487.49854465 -1472.03202057 1472.27043152 C-1456.60065081 1456.83029848 -1441.16710199 1441.39234841 -1425.73086548 1425.95708084 C-1425.24449375 1425.47073769 -1424.75812201 1424.98439454 -1424.25701174 1424.48331372 C-1419.79989682 1420.02646229 -1415.34275753 1415.56963522 -1410.88558921 1411.11283719 C-1399.70760606 1399.93578036 -1388.52995363 1388.75839283 -1377.35252047 1377.58078599 C-1376.84026499 1377.06852302 -1376.32800951 1376.55626005 -1375.80023114 1376.02847396 C-1350.53236654 1350.76018074 -1325.2682575 1325.48813344 -1300.0043869 1300.21584702 C-1291.10815598 1291.31665778 -1282.21190723 1282.41748636 -1273.31559277 1273.51838064 C-1272.76258458 1272.96519892 -1272.2095764 1272.41201721 -1271.63981039 1271.84207241 C-1246.03228467 1246.22655474 -1220.42219574 1220.61360038 -1194.81144812 1195.00130406 C-1193.13688423 1193.32663865 -1191.46232155 1191.65197203 -1189.78775918 1189.97730511 C-1179.69025297 1179.87917072 -1169.59272005 1169.78106305 -1159.49515626 1159.68298624 C-1134.391597 1134.57814922 -1109.28835835 1109.47299161 -1084.18533707 1084.36761665 C-1083.6138271 1083.79605342 -1083.04231713 1083.22449018 -1082.45348868 1082.63560685 C-1045.43234258 1045.61100508 -1008.41251671 1008.58508357 -971.39379501 971.55805779 C-970.80267683 970.96680702 -970.21155864 970.37555626 -969.60252779 969.76638881 C-951.60810641 951.76792599 -933.6137827 933.76936553 -915.61947809 915.77078597 C-895.70647758 895.85305556 -875.79346042 875.9353418 -855.88037109 856.0177002 C-855.281584 855.4187761 -854.68279691 854.81985201 -854.06586475 854.2027787 C-797.20315681 797.32707191 -740.3377607 740.45405314 -683.47166852 683.58173005 C-681.06325868 681.17305592 -678.65484961 678.76438102 -676.24644058 676.35570608 C-654.08387533 654.19069404 -631.92127852 632.02571356 -609.75864206 609.86077272 C-609.1693217 609.27139108 -608.58000134 608.68200943 -607.97282278 608.07476774 C-606.18851927 606.29027871 -604.40421576 604.50578969 -602.61991224 602.72130067 C-554.41504033 554.51141696 -506.21044375 506.30125797 -458.0060255 458.09092066 C-456.30519671 456.38988316 -454.60436771 454.68884588 -452.90353865 452.98780866 C-397.65876538 397.73627248 -342.41448808 342.48424045 -146.44433594 146.47607422 C-145.96605188 145.99769024 -145.48776782 145.51930626 -144.9949903 145.02642579 C-96.66313653 96.68447416 -48.33145664 48.34234868 0 0 Z " fill="#E7EAEB" transform="translate(3174,1017)"/>
</svg>
