<svg xmlns="http://www.w3.org/2000/svg" viewBox="0 10.079999923706055 91.0199966430664 41.190006256103516" data-asc="1.0087890625"><g fill="#7c8083"><g fill="#7c8083" transform="translate(0, 0)"><path d="M22.63 22.88L13.09 22.88L13.09 19.95Q13.09 17.90 12.72 17.33Q12.35 16.77 11.50 16.77Q10.57 16.77 10.10 17.53Q9.62 18.29 9.62 19.82Q9.62 21.80 10.16 22.80Q10.67 23.80 13.06 25.22Q19.92 29.30 21.70 31.91Q23.49 34.52 23.49 40.33Q23.49 44.56 22.50 46.56Q21.51 48.56 18.68 49.91Q15.84 51.27 12.08 51.27Q7.96 51.27 5.04 49.71Q2.12 48.14 1.22 45.73Q0.32 43.31 0.32 38.87L0.32 36.28L9.86 36.28L9.86 41.09Q9.86 43.31 10.27 43.95Q10.67 44.58 11.69 44.58Q12.72 44.58 13.22 43.77Q13.72 42.97 13.72 41.38Q13.72 37.89 12.77 36.82Q11.79 35.74 7.96 33.23Q4.13 30.69 2.88 29.54Q1.64 28.39 0.82 26.37Q0 24.34 0 21.19Q0 16.65 1.16 14.55Q2.32 12.45 4.91 11.27Q7.50 10.08 11.16 10.08Q15.16 10.08 17.98 11.38Q20.80 12.67 21.72 14.64Q22.63 16.60 22.63 21.31L22.63 22.88ZM50.34 10.91L50.34 50.44L40.06 50.44L40.06 33.84L36.99 33.84L36.99 50.44L26.71 50.44L26.71 10.91L36.99 10.91L36.99 25.05L40.06 25.05L40.06 10.91L50.34 10.91ZM64.75 10.91L64.75 50.44L54.47 50.44L54.47 10.91L64.75 10.91ZM68.87 10.91L79.22 10.91Q83.42 10.91 85.68 11.57Q87.94 12.23 89.07 13.48Q90.21 14.72 90.61 16.49Q91.02 18.26 91.02 21.97L91.02 25.42Q91.02 29.20 90.23 30.93Q89.45 32.67 87.37 33.59Q85.28 34.52 81.91 34.52L79.15 34.52L79.15 50.44L68.87 50.44L68.87 10.91M79.15 17.68L79.15 27.73Q79.59 27.76 79.91 27.76Q81.32 27.76 81.87 27.06Q82.42 26.37 82.42 24.17L82.42 20.92Q82.42 18.90 81.79 18.29Q81.15 17.68 79.15 17.68Z"/></g></g></svg>