<svg xmlns="http://www.w3.org/2000/svg" viewBox="0 10.90999984741211 133.17999267578125 39.529998779296875" data-asc="1.0087890625"><g fill="#6487e7"><g fill="#6487e7" transform="translate(0, 0)"><path d="M0 10.91L10.25 10.91Q15.11 10.91 17.61 11.67Q20.12 12.43 21.66 14.73Q23.19 17.04 23.19 22.17Q23.19 25.63 22.11 27.00Q21.02 28.37 17.82 29.10Q21.39 29.91 22.66 31.77Q23.93 33.64 23.93 37.50L23.93 41.16Q23.93 45.17 23.01 47.09Q22.09 49.02 20.09 49.73Q18.09 50.44 11.89 50.44L0 50.44L0 10.91M10.28 17.68L10.28 26.46Q10.94 26.44 11.30 26.44Q12.82 26.44 13.23 25.70Q13.65 24.95 13.65 21.44Q13.65 19.58 13.31 18.84Q12.96 18.09 12.41 17.90Q11.87 17.70 10.28 17.68M10.28 32.62L10.28 43.68Q12.45 43.60 13.05 42.99Q13.65 42.38 13.65 39.99L13.65 36.30Q13.65 33.76 13.11 33.23Q12.57 32.69 10.28 32.62ZM45.36 10.91L51.25 50.44L40.72 50.44L40.21 43.33L36.52 43.33L35.91 50.44L25.27 50.44L30.49 10.91L45.36 10.91M39.92 36.33Q39.14 29.61 38.35 19.75Q36.79 31.08 36.40 36.33L39.92 36.33ZM70.95 10.91L70.95 18.82L64.84 18.82L64.84 50.44L54.57 50.44L54.57 18.82L48.49 18.82L48.49 10.91L70.95 10.91ZM93.99 10.91L93.99 18.82L87.89 18.82L87.89 50.44L77.61 50.44L77.61 18.82L71.53 18.82L71.53 10.91L93.99 10.91ZM106.62 10.91L106.62 42.53L112.87 42.53L112.87 50.44L96.34 50.44L96.34 10.91L106.62 10.91ZM115.36 10.91L132.50 10.91L132.50 18.82L125.63 18.82L125.63 26.32L132.06 26.32L132.06 33.84L125.63 33.84L125.63 42.53L133.18 42.53L133.18 50.44L115.36 50.44L115.36 10.91Z"/></g></g></svg>
