<svg xmlns="http://www.w3.org/2000/svg" viewBox="0 15.5 260.8999938964844 37.45000076293945" data-asc="1.05"><g fill="#dddfe1"><g fill="#dddfe1" transform="translate(0, 0)"><path d="M25.45 28.40Q25.45 31.20 24.13 33.65Q22.80 36.10 19.98 37.60Q17.15 39.10 12.85 39.10L7.00 39.10L7.00 52.50L0 52.50L0 17.60L12.85 17.60Q16.90 17.60 19.75 19Q22.60 20.40 24.03 22.85Q25.45 25.30 25.45 28.40M12.55 33.45Q15.45 33.45 16.85 32.13Q18.25 30.80 18.25 28.40Q18.25 23.30 12.55 23.30L7.00 23.30L7.00 33.45L12.55 33.45ZM37.40 15.50L37.40 52.50L30.40 52.50L30.40 15.50L37.40 15.50ZM42.50 38.55Q42.50 34.35 44.18 31.10Q45.85 27.85 48.73 26.10Q51.60 24.35 55.15 24.35Q58.25 24.35 60.58 25.60Q62.90 26.85 64.30 28.75L64.30 24.80L71.35 24.80L71.35 52.50L64.30 52.50L64.30 48.45Q62.95 50.40 60.58 51.67Q58.20 52.95 55.10 52.95Q51.60 52.95 48.73 51.15Q45.85 49.35 44.18 46.08Q42.50 42.80 42.50 38.55M64.30 38.65Q64.30 36.10 63.30 34.27Q62.30 32.45 60.60 31.47Q58.90 30.50 56.95 30.50Q55 30.50 53.35 31.45Q51.70 32.40 50.68 34.22Q49.65 36.05 49.65 38.55Q49.65 41.05 50.68 42.92Q51.70 44.80 53.38 45.80Q55.05 46.80 56.95 46.80Q58.90 46.80 60.60 45.83Q62.30 44.85 63.30 43.02Q64.30 41.20 64.30 38.65ZM76.40 38.65Q76.40 34.35 78.15 31.13Q79.90 27.90 83 26.13Q86.10 24.35 90.10 24.35Q95.25 24.35 98.63 26.92Q102 29.50 103.15 34.15L95.60 34.15Q95 32.35 93.58 31.32Q92.15 30.30 90.05 30.30Q87.05 30.30 85.30 32.47Q83.55 34.65 83.55 38.65Q83.55 42.60 85.30 44.77Q87.05 46.95 90.05 46.95Q94.30 46.95 95.60 43.15L103.15 43.15Q102 47.65 98.60 50.30Q95.20 52.95 90.10 52.95Q86.10 52.95 83 51.17Q79.90 49.40 78.15 46.17Q76.40 42.95 76.40 38.65ZM134.05 38.05Q134.05 39.55 133.85 40.75L113.60 40.75Q113.85 43.75 115.70 45.45Q117.55 47.15 120.25 47.15Q124.15 47.15 125.80 43.80L133.35 43.80Q132.15 47.80 128.75 50.38Q125.35 52.95 120.40 52.95Q116.40 52.95 113.22 51.17Q110.05 49.40 108.27 46.15Q106.50 42.90 106.50 38.65Q106.50 34.35 108.25 31.10Q110 27.85 113.15 26.10Q116.30 24.35 120.40 24.35Q124.35 24.35 127.47 26.05Q130.60 27.75 132.32 30.88Q134.05 34 134.05 38.05M126.80 36.05Q126.75 33.35 124.85 31.72Q122.95 30.10 120.20 30.10Q117.60 30.10 115.82 31.67Q114.05 33.25 113.65 36.05L126.80 36.05ZM166.65 24.40Q169.80 24.40 172.25 25.77Q174.70 27.15 176.07 29.82Q177.45 32.50 177.45 36.25L177.45 52.50L170.45 52.50L170.45 37.20Q170.45 33.90 168.80 32.13Q167.15 30.35 164.30 30.35Q161.40 30.35 159.72 32.13Q158.05 33.90 158.05 37.20L158.05 52.50L151.05 52.50L151.05 15.50L158.05 15.50L158.05 28.25Q159.40 26.45 161.65 25.42Q163.90 24.40 166.65 24.40ZM209.85 38.05Q209.85 39.55 209.65 40.75L189.40 40.75Q189.65 43.75 191.50 45.45Q193.35 47.15 196.05 47.15Q199.95 47.15 201.60 43.80L209.15 43.80Q207.95 47.80 204.55 50.38Q201.15 52.95 196.20 52.95Q192.20 52.95 189.03 51.17Q185.85 49.40 184.08 46.15Q182.30 42.90 182.30 38.65Q182.30 34.35 184.05 31.10Q185.80 27.85 188.95 26.10Q192.10 24.35 196.20 24.35Q200.15 24.35 203.28 26.05Q206.40 27.75 208.13 30.88Q209.85 34 209.85 38.05M202.60 36.05Q202.55 33.35 200.65 31.72Q198.75 30.10 196 30.10Q193.40 30.10 191.63 31.67Q189.85 33.25 189.45 36.05L202.60 36.05ZM221.95 29.10Q223.30 26.90 225.47 25.65Q227.65 24.40 230.45 24.40L230.45 31.75L228.60 31.75Q225.30 31.75 223.63 33.30Q221.95 34.85 221.95 38.70L221.95 52.50L214.95 52.50L214.95 24.80L221.95 24.80L221.95 29.10ZM260.90 38.05Q260.90 39.55 260.70 40.75L240.45 40.75Q240.70 43.75 242.55 45.45Q244.40 47.15 247.10 47.15Q251 47.15 252.65 43.80L260.20 43.80Q259 47.80 255.60 50.38Q252.20 52.95 247.25 52.95Q243.25 52.95 240.07 51.17Q236.90 49.40 235.13 46.15Q233.35 42.90 233.35 38.65Q233.35 34.35 235.10 31.10Q236.85 27.85 240 26.10Q243.15 24.35 247.25 24.35Q251.20 24.35 254.32 26.05Q257.45 27.75 259.18 30.88Q260.90 34 260.90 38.05M253.65 36.05Q253.60 33.35 251.70 31.72Q249.80 30.10 247.05 30.10Q244.45 30.10 242.67 31.67Q240.90 33.25 240.50 36.05L253.65 36.05Z"/></g></g></svg>