<svg xmlns="http://www.w3.org/2000/svg" viewBox="0 14.449999809265137 397.79998779296875 51.04999923706055" data-asc="1.05"><g fill="#dddfe1"><g fill="#dddfe1" transform="translate(0, 0)"><path d="M23.30 27.85Q23.30 32.20 20.32 35.08Q17.35 37.95 11.25 37.95L4.55 37.95L4.55 52.50L0 52.50L0 17.65L11.25 17.65Q17.15 17.65 20.23 20.50Q23.30 23.35 23.30 27.85M11.25 34.20Q15.05 34.20 16.85 32.55Q18.65 30.90 18.65 27.85Q18.65 21.40 11.25 21.40L4.55 21.40L4.55 34.20L11.25 34.20ZM33.50 15.50L33.50 52.50L28.95 52.50L28.95 15.50L33.50 15.50ZM39.55 38.70Q39.55 34.50 41.25 31.32Q42.95 28.15 45.93 26.40Q48.90 24.65 52.55 24.65Q56.15 24.65 58.80 26.20Q61.45 27.75 62.75 30.10L62.75 25.10L67.35 25.10L67.35 52.50L62.75 52.50L62.75 47.40Q61.40 49.80 58.73 51.38Q56.05 52.95 52.50 52.95Q48.85 52.95 45.90 51.15Q42.95 49.35 41.25 46.10Q39.55 42.85 39.55 38.70M62.75 38.75Q62.75 35.65 61.50 33.35Q60.25 31.05 58.13 29.82Q56.00 28.60 53.45 28.60Q50.90 28.60 48.80 29.80Q46.70 31 45.45 33.30Q44.20 35.60 44.20 38.70Q44.20 41.85 45.45 44.17Q46.70 46.50 48.80 47.73Q50.90 48.95 53.45 48.95Q56.00 48.95 58.13 47.73Q60.25 46.50 61.50 44.17Q62.75 41.85 62.75 38.75ZM73.35 38.75Q73.35 34.50 75.05 31.32Q76.75 28.15 79.78 26.40Q82.80 24.65 86.70 24.65Q91.75 24.65 95.03 27.10Q98.30 29.55 99.35 33.90L94.45 33.90Q93.75 31.40 91.73 29.95Q89.70 28.50 86.70 28.50Q82.80 28.50 80.40 31.17Q78.00 33.85 78.00 38.75Q78.00 43.70 80.40 46.40Q82.80 49.10 86.70 49.10Q89.70 49.10 91.70 47.70Q93.70 46.30 94.45 43.70L99.35 43.70Q98.25 47.90 94.95 50.42Q91.65 52.95 86.70 52.95Q82.80 52.95 79.78 51.20Q76.75 49.45 75.05 46.25Q73.35 43.05 73.35 38.75ZM130.40 37.75Q130.40 39.05 130.25 40.50L108.35 40.50Q108.60 44.55 111.13 46.83Q113.65 49.10 117.25 49.10Q120.20 49.10 122.18 47.73Q124.15 46.35 124.95 44.05L129.85 44.05Q128.75 48 125.45 50.48Q122.15 52.95 117.25 52.95Q113.35 52.95 110.28 51.20Q107.20 49.45 105.45 46.23Q103.70 43 103.70 38.75Q103.70 34.50 105.40 31.30Q107.10 28.10 110.18 26.38Q113.25 24.65 117.25 24.65Q121.15 24.65 124.15 26.35Q127.15 28.05 128.78 31.02Q130.40 34 130.40 37.75M125.70 36.80Q125.70 34.20 124.55 32.33Q123.40 30.45 121.43 29.47Q119.45 28.50 117.05 28.50Q113.60 28.50 111.18 30.70Q108.75 32.90 108.40 36.80L125.70 36.80ZM173.35 25.10L156.85 65.40L152.15 65.40L157.55 52.20L146.50 25.10L151.55 25.10L160.15 47.30L168.65 25.10L173.35 25.10ZM189.85 52.95Q186 52.95 182.88 51.20Q179.75 49.45 177.98 46.23Q176.20 43 176.20 38.75Q176.20 34.55 178.03 31.32Q179.85 28.10 183 26.38Q186.15 24.65 190.05 24.65Q193.95 24.65 197.10 26.38Q200.25 28.10 202.08 31.30Q203.90 34.50 203.90 38.75Q203.90 43 202.03 46.23Q200.15 49.45 196.95 51.20Q193.75 52.95 189.85 52.95M189.85 48.95Q192.30 48.95 194.45 47.80Q196.60 46.65 197.93 44.35Q199.25 42.05 199.25 38.75Q199.25 35.45 197.95 33.15Q196.65 30.85 194.55 29.72Q192.45 28.60 190 28.60Q187.50 28.60 185.43 29.72Q183.35 30.85 182.10 33.15Q180.85 35.45 180.85 38.75Q180.85 42.10 182.08 44.40Q183.30 46.70 185.35 47.83Q187.40 48.95 189.85 48.95ZM234.20 25.10L234.20 52.50L229.65 52.50L229.65 48.45Q228.35 50.55 226.03 51.73Q223.70 52.90 220.90 52.90Q217.70 52.90 215.15 51.58Q212.60 50.25 211.13 47.60Q209.65 44.95 209.65 41.15L209.65 25.10L214.15 25.10L214.15 40.55Q214.15 44.60 216.20 46.77Q218.25 48.95 221.80 48.95Q225.45 48.95 227.55 46.70Q229.65 44.45 229.65 40.15L229.65 25.10L234.20 25.10ZM246.45 29.55Q247.65 27.20 249.88 25.90Q252.10 24.60 255.30 24.60L255.30 29.30L254.10 29.30Q246.45 29.30 246.45 37.60L246.45 52.50L241.90 52.50L241.90 25.10L246.45 25.10L246.45 29.55ZM283.60 52.95Q280.45 52.95 277.95 51.88Q275.45 50.80 274 48.88Q272.55 46.95 272.40 44.45L277.10 44.45Q277.30 46.50 279.03 47.80Q280.75 49.10 283.55 49.10Q286.15 49.10 287.65 47.95Q289.15 46.80 289.15 45.05Q289.15 43.25 287.55 42.38Q285.95 41.50 282.60 40.65Q279.55 39.85 277.63 39.02Q275.70 38.20 274.32 36.58Q272.95 34.95 272.95 32.30Q272.95 30.20 274.20 28.45Q275.45 26.70 277.75 25.67Q280.05 24.65 283 24.65Q287.55 24.65 290.35 26.95Q293.15 29.25 293.35 33.25L288.80 33.25Q288.65 31.10 287.07 29.80Q285.50 28.50 282.85 28.50Q280.40 28.50 278.95 29.55Q277.50 30.60 277.50 32.30Q277.50 33.65 278.38 34.52Q279.25 35.40 280.57 35.92Q281.90 36.45 284.25 37.10Q287.20 37.90 289.05 38.67Q290.90 39.45 292.23 41Q293.55 42.55 293.60 45.05Q293.60 47.30 292.35 49.10Q291.10 50.90 288.82 51.92Q286.55 52.95 283.60 52.95ZM313.60 24.60Q316.70 24.60 319.20 25.92Q321.70 27.25 323.13 29.90Q324.55 32.55 324.55 36.35L324.55 52.50L320.05 52.50L320.05 37Q320.05 32.90 318.00 30.72Q315.95 28.55 312.40 28.55Q308.80 28.55 306.68 30.80Q304.55 33.05 304.55 37.35L304.55 52.50L300.00 52.50L300.00 15.50L304.55 15.50L304.55 29Q305.90 26.90 308.28 25.75Q310.65 24.60 313.60 24.60ZM334.35 20.65Q333.05 20.65 332.15 19.75Q331.25 18.85 331.25 17.55Q331.25 16.25 332.15 15.35Q333.05 14.45 334.35 14.45Q335.60 14.45 336.48 15.35Q337.35 16.25 337.35 17.55Q337.35 18.85 336.48 19.75Q335.60 20.65 334.35 20.65M336.55 25.10L336.55 52.50L332.00 52.50L332.00 25.10L336.55 25.10ZM348.85 30.15Q350.20 27.80 352.88 26.22Q355.55 24.65 359.10 24.65Q362.75 24.65 365.73 26.40Q368.70 28.15 370.40 31.32Q372.10 34.50 372.10 38.70Q372.10 42.85 370.40 46.10Q368.70 49.35 365.73 51.15Q362.75 52.95 359.10 52.95Q355.60 52.95 352.93 51.38Q350.25 49.80 348.85 47.45L348.85 65.50L344.30 65.50L344.30 25.10L348.85 25.10L348.85 30.15M367.45 38.70Q367.45 35.60 366.20 33.30Q364.95 31 362.83 29.80Q360.70 28.60 358.15 28.60Q355.65 28.60 353.53 29.82Q351.40 31.05 350.13 33.38Q348.85 35.70 348.85 38.75Q348.85 41.85 350.13 44.17Q351.40 46.50 353.53 47.73Q355.65 48.95 358.15 48.95Q360.70 48.95 362.83 47.73Q364.95 46.50 366.20 44.17Q367.45 41.85 367.45 38.70ZM387.80 52.95Q384.65 52.95 382.15 51.88Q379.65 50.80 378.20 48.88Q376.75 46.95 376.60 44.45L381.30 44.45Q381.50 46.50 383.23 47.80Q384.95 49.10 387.75 49.10Q390.35 49.10 391.85 47.95Q393.35 46.80 393.35 45.05Q393.35 43.25 391.75 42.38Q390.15 41.50 386.80 40.65Q383.75 39.85 381.83 39.02Q379.90 38.20 378.53 36.58Q377.15 34.95 377.15 32.30Q377.15 30.20 378.40 28.45Q379.65 26.70 381.95 25.67Q384.25 24.65 387.20 24.65Q391.75 24.65 394.55 26.95Q397.35 29.25 397.55 33.25L393.00 33.25Q392.85 31.10 391.28 29.80Q389.70 28.50 387.05 28.50Q384.60 28.50 383.15 29.55Q381.70 30.60 381.70 32.30Q381.70 33.65 382.58 34.52Q383.45 35.40 384.78 35.92Q386.10 36.45 388.45 37.10Q391.40 37.90 393.25 38.67Q395.10 39.45 396.43 41Q397.75 42.55 397.80 45.05Q397.80 47.30 396.55 49.10Q395.30 50.90 393.03 51.92Q390.75 52.95 387.80 52.95Z"/></g></g></svg>