<svg xmlns="http://www.w3.org/2000/svg" viewBox="0 17.649999618530273 157.60000610351562 35.30000686645508" data-asc="1.05"><g fill="#9a9da8"><g fill="#9a9da8" transform="translate(0, 0)"><path d="M18.35 52.50L10.05 38.25L4.55 38.25L4.55 52.50L0 52.50L0 17.65L11.25 17.65Q15.20 17.65 17.93 19Q20.65 20.35 22 22.65Q23.35 24.95 23.35 27.90Q23.35 31.50 21.27 34.25Q19.20 37 15.05 37.90L23.80 52.50L18.35 52.50M4.55 34.60L11.25 34.60Q14.95 34.60 16.80 32.77Q18.65 30.95 18.65 27.90Q18.65 24.80 16.82 23.10Q15.00 21.40 11.25 21.40L4.55 21.40L4.55 34.60ZM42.35 52.95Q38.50 52.95 35.38 51.20Q32.25 49.45 30.48 46.23Q28.70 43 28.70 38.75Q28.70 34.55 30.53 31.32Q32.35 28.10 35.50 26.38Q38.65 24.65 42.55 24.65Q46.45 24.65 49.60 26.38Q52.75 28.10 54.58 31.30Q56.40 34.50 56.40 38.75Q56.40 43 54.53 46.23Q52.65 49.45 49.45 51.20Q46.25 52.95 42.35 52.95M42.35 48.95Q44.80 48.95 46.95 47.80Q49.10 46.65 50.42 44.35Q51.75 42.05 51.75 38.75Q51.75 35.45 50.45 33.15Q49.15 30.85 47.05 29.72Q44.95 28.60 42.50 28.60Q40 28.60 37.92 29.72Q35.85 30.85 34.60 33.15Q33.35 35.45 33.35 38.75Q33.35 42.10 34.58 44.40Q35.80 46.70 37.85 47.83Q39.90 48.95 42.35 48.95ZM67.95 28.85L67.95 45Q67.95 47 68.80 47.83Q69.65 48.65 71.75 48.65L75.10 48.65L75.10 52.50L71 52.50Q67.20 52.50 65.30 50.75Q63.40 49 63.40 45L63.40 28.85L59.85 28.85L59.85 25.10L63.40 25.10L63.40 18.20L67.95 18.20L67.95 25.10L75.10 25.10L75.10 28.85L67.95 28.85ZM78.90 38.70Q78.90 34.50 80.60 31.32Q82.30 28.15 85.28 26.40Q88.25 24.65 91.90 24.65Q95.50 24.65 98.15 26.20Q100.80 27.75 102.10 30.10L102.10 25.10L106.70 25.10L106.70 52.50L102.10 52.50L102.10 47.40Q100.75 49.80 98.08 51.38Q95.40 52.95 91.85 52.95Q88.20 52.95 85.25 51.15Q82.30 49.35 80.60 46.10Q78.90 42.85 78.90 38.70M102.10 38.75Q102.10 35.65 100.85 33.35Q99.60 31.05 97.47 29.82Q95.35 28.60 92.80 28.60Q90.25 28.60 88.15 29.80Q86.05 31 84.80 33.30Q83.55 35.60 83.55 38.70Q83.55 41.85 84.80 44.17Q86.05 46.50 88.15 47.73Q90.25 48.95 92.80 48.95Q95.35 48.95 97.47 47.73Q99.60 46.50 100.85 44.17Q102.10 41.85 102.10 38.75ZM119.95 28.85L119.95 45Q119.95 47 120.80 47.83Q121.65 48.65 123.75 48.65L127.10 48.65L127.10 52.50L123.00 52.50Q119.20 52.50 117.30 50.75Q115.40 49 115.40 45L115.40 28.85L111.85 28.85L111.85 25.10L115.40 25.10L115.40 18.20L119.95 18.20L119.95 25.10L127.10 25.10L127.10 28.85L119.95 28.85ZM157.60 37.75Q157.60 39.05 157.45 40.50L135.55 40.50Q135.80 44.55 138.32 46.83Q140.85 49.10 144.45 49.10Q147.40 49.10 149.38 47.73Q151.35 46.35 152.15 44.05L157.05 44.05Q155.95 48 152.65 50.48Q149.35 52.95 144.45 52.95Q140.55 52.95 137.47 51.20Q134.40 49.45 132.65 46.23Q130.90 43 130.90 38.75Q130.90 34.50 132.60 31.30Q134.30 28.10 137.38 26.38Q140.45 24.65 144.45 24.65Q148.35 24.65 151.35 26.35Q154.35 28.05 155.97 31.02Q157.60 34 157.60 37.75M152.90 36.80Q152.90 34.20 151.75 32.33Q150.60 30.45 148.63 29.47Q146.65 28.50 144.25 28.50Q140.80 28.50 138.38 30.70Q135.95 32.90 135.60 36.80L152.90 36.80Z"/></g></g></svg>