<?xml version="1.0" encoding="UTF-8"?>
<!DOCTYPE svg PUBLIC "-//W3C//DTD SVG 1.1//EN" "http://www.w3.org/Graphics/SVG/1.1/DTD/svg11.dtd">
<svg xmlns="http://www.w3.org/2000/svg" version="1.1" width="4000px" height="4000px" style="shape-rendering:geometricPrecision; text-rendering:geometricPrecision; image-rendering:optimizeQuality; fill-rule:evenodd; clip-rule:evenodd" xmlns:xlink="http://www.w3.org/1999/xlink">
<g><path style="opacity:0.998" fill="#9a9ca7" d="M 1944.5,140.5 C 2157.13,352.632 2369.63,564.965 2582,777.5C 2582.67,778.167 2582.67,778.833 2582,779.5C 2369.67,991.833 2157.33,1204.17 1945,1416.5C 1883.83,1355.33 1822.67,1294.17 1761.5,1233C 1870.83,1123.67 1980.17,1014.33 2089.5,905C 1956.27,898.63 1824.6,909.964 1694.5,939C 1492.97,987.74 1316.31,1081.41 1164.5,1220C 904.832,1457.63 769.665,1753.47 759,2107.5C 746.1,2537.43 905.933,2886.6 1238.5,3155C 1410.46,3289.11 1604.46,3375.94 1820.5,3415.5C 1820.5,3499.17 1820.5,3582.83 1820.5,3666.5C 1381.24,3597.93 1032.41,3384.6 774,3026.5C 614.869,2798.35 527.202,2544.69 511,2265.5C 485.873,1879.31 590.206,1533.31 824,1227.5C 1017.53,983.734 1263.03,814.234 1560.5,719C 1691.21,679.27 1824.88,657.603 1961.5,654C 2004.17,653.667 2046.83,653.333 2089.5,653C 1979.99,543.653 1870.65,434.153 1761.5,324.5C 1822.52,263.146 1883.52,201.812 1944.5,140.5 Z"/></g>
<g><path style="opacity:0.998" fill="#9a9ca7" d="M 3198.5,1211.5 C 3301.92,1352.67 3380.42,1507.34 3434,1675.5C 3464.2,1770.61 3486.03,1867.61 3499.5,1966.5C 3414.5,1966.5 3329.5,1966.5 3244.5,1966.5C 3218,1785.48 3157.17,1617.15 3062,1461.5C 3047.07,1437.96 3031.9,1414.62 3016.5,1391.5C 3017.9,1388.59 3019.9,1386.09 3022.5,1384C 3081.43,1326.71 3140.1,1269.21 3198.5,1211.5 Z"/></g>
<g><path style="opacity:0.997" fill="#999ca7" d="M 3245.5,2340.5 C 3330.17,2340.5 3414.83,2340.5 3499.5,2340.5C 3467.06,2583.68 3386.23,2809.01 3257,3016.5C 3238.81,3044.86 3219.64,3072.52 3199.5,3099.5C 3137.97,3038.81 3076.97,2977.64 3016.5,2916C 3110.18,2791.78 3176.01,2653.61 3214,2501.5C 3227.52,2448.38 3238.02,2394.71 3245.5,2340.5 Z"/></g>
<g><path style="opacity:0.999" fill="#9a9ca7" d="M 2756.5,3178.5 C 2766.75,3187.24 2776.58,3196.58 2786,3206.5C 2836.5,3258.33 2887,3310.17 2937.5,3362C 2745.65,3505.22 2531.65,3600.89 2295.5,3649C 2262.01,3655.91 2228.34,3661.75 2194.5,3666.5C 2194.17,3582.93 2194.5,3499.43 2195.5,3416C 2333.01,3392.05 2464.01,3348.72 2588.5,3286C 2647.62,3254.64 2703.62,3218.81 2756.5,3178.5 Z"/></g>
</svg>
