<svg data-asc="1.05" viewBox="368.1538082885742 14.449999809265137 175.1306039428711 39.58450704225352" xmlns="http://www.w3.org/2000/svg" style="max-height: 500px" width="175.1306039428711" height="39.58450704225352"><g fill="#9a9da8"><g transform="translate(0, 0)" fill="#9a9da8"><path d="M18.35 52.50L10.05 38.25L4.55 38.25L4.55 52.50L0 52.50L0 17.65L11.25 17.65Q15.20 17.65 17.93 19Q20.65 20.35 22 22.65Q23.35 24.95 23.35 27.90Q23.35 31.50 21.27 34.25Q19.20 37 15.05 37.90L23.80 52.50L18.35 52.50M4.55 34.60L11.25 34.60Q14.95 34.60 16.80 32.77Q18.65 30.95 18.65 27.90Q18.65 24.80 16.82 23.10Q15.00 21.40 11.25 21.40L4.55 21.40L4.55 34.60ZM42.35 52.95Q38.50 52.95 35.38 51.20Q32.25 49.45 30.48 46.23Q28.70 43 28.70 38.75Q28.70 34.55 30.53 31.32Q32.35 28.10 35.50 26.38Q38.65 24.65 42.55 24.65Q46.45 24.65 49.60 26.38Q52.75 28.10 54.58 31.30Q56.40 34.50 56.40 38.75Q56.40 43 54.53 46.23Q52.65 49.45 49.45 51.20Q46.25 52.95 42.35 52.95M42.35 48.95Q44.80 48.95 46.95 47.80Q49.10 46.65 50.42 44.35Q51.75 42.05 51.75 38.75Q51.75 35.45 50.45 33.15Q49.15 30.85 47.05 29.72Q44.95 28.60 42.50 28.60Q40 28.60 37.92 29.72Q35.85 30.85 34.60 33.15Q33.35 35.45 33.35 38.75Q33.35 42.10 34.58 44.40Q35.80 46.70 37.85 47.83Q39.90 48.95 42.35 48.95ZM67.95 28.85L67.95 45Q67.95 47 68.80 47.83Q69.65 48.65 71.75 48.65L75.10 48.65L75.10 52.50L71 52.50Q67.20 52.50 65.30 50.75Q63.40 49 63.40 45L63.40 28.85L59.85 28.85L59.85 25.10L63.40 25.10L63.40 18.20L67.95 18.20L67.95 25.10L75.10 25.10L75.10 28.85L67.95 28.85ZM78.90 38.70Q78.90 34.50 80.60 31.32Q82.30 28.15 85.28 26.40Q88.25 24.65 91.90 24.65Q95.50 24.65 98.15 26.20Q100.80 27.75 102.10 30.10L102.10 25.10L106.70 25.10L106.70 52.50L102.10 52.50L102.10 47.40Q100.75 49.80 98.08 51.38Q95.40 52.95 91.85 52.95Q88.20 52.95 85.25 51.15Q82.30 49.35 80.60 46.10Q78.90 42.85 78.90 38.70M102.10 38.75Q102.10 35.65 100.85 33.35Q99.60 31.05 97.47 29.82Q95.35 28.60 92.80 28.60Q90.25 28.60 88.15 29.80Q86.05 31 84.80 33.30Q83.55 35.60 83.55 38.70Q83.55 41.85 84.80 44.17Q86.05 46.50 88.15 47.73Q90.25 48.95 92.80 48.95Q95.35 48.95 97.47 47.73Q99.60 46.50 100.85 44.17Q102.10 41.85 102.10 38.75ZM119.95 28.85L119.95 45Q119.95 47 120.80 47.83Q121.65 48.65 123.75 48.65L127.10 48.65L127.10 52.50L123.00 52.50Q119.20 52.50 117.30 50.75Q115.40 49 115.40 45L115.40 28.85L111.85 28.85L111.85 25.10L115.40 25.10L115.40 18.20L119.95 18.20L119.95 25.10L127.10 25.10L127.10 28.85L119.95 28.85ZM157.60 37.75Q157.60 39.05 157.45 40.50L135.55 40.50Q135.80 44.55 138.32 46.83Q140.85 49.10 144.45 49.10Q147.40 49.10 149.38 47.73Q151.35 46.35 152.15 44.05L157.05 44.05Q155.95 48 152.65 50.48Q149.35 52.95 144.45 52.95Q140.55 52.95 137.47 51.20Q134.40 49.45 132.65 46.23Q130.90 43 130.90 38.75Q130.90 34.50 132.60 31.30Q134.30 28.10 137.38 26.38Q140.45 24.65 144.45 24.65Q148.35 24.65 151.35 26.35Q154.35 28.05 155.97 31.02Q157.60 34 157.60 37.75M152.90 36.80Q152.90 34.20 151.75 32.33Q150.60 30.45 148.63 29.47Q146.65 28.50 144.25 28.50Q140.80 28.50 138.38 30.70Q135.95 32.90 135.60 36.80L152.90 36.80ZM168.15 21.35L168.15 33L180.85 33L180.85 36.75L168.15 36.75L168.15 48.75L182.35 48.75L182.35 52.50L163.60 52.50L163.60 17.60L182.35 17.60L182.35 21.35L168.15 21.35ZM193.80 29.55Q195 27.20 197.22 25.90Q199.45 24.60 202.65 24.60L202.65 29.30L201.45 29.30Q193.80 29.30 193.80 37.60L193.80 52.50L189.25 52.50L189.25 25.10L193.80 25.10L193.80 29.55ZM206.20 38.70Q206.20 34.50 207.90 31.32Q209.60 28.15 212.58 26.40Q215.55 24.65 219.20 24.65Q222.80 24.65 225.45 26.20Q228.10 27.75 229.40 30.10L229.40 25.10L234 25.10L234 52.50L229.40 52.50L229.40 47.40Q228.05 49.80 225.38 51.38Q222.70 52.95 219.15 52.95Q215.50 52.95 212.55 51.15Q209.60 49.35 207.90 46.10Q206.20 42.85 206.20 38.70M229.40 38.75Q229.40 35.65 228.15 33.35Q226.90 31.05 224.78 29.82Q222.65 28.60 220.10 28.60Q217.55 28.60 215.45 29.80Q213.35 31 212.10 33.30Q210.85 35.60 210.85 38.70Q210.85 41.85 212.10 44.17Q213.35 46.50 215.45 47.73Q217.55 48.95 220.10 48.95Q222.65 48.95 224.78 47.73Q226.90 46.50 228.15 44.17Q229.40 41.85 229.40 38.75ZM251.40 52.95Q248.25 52.95 245.75 51.88Q243.25 50.80 241.80 48.88Q240.35 46.95 240.20 44.45L244.90 44.45Q245.10 46.50 246.83 47.80Q248.55 49.10 251.35 49.10Q253.95 49.10 255.45 47.95Q256.95 46.80 256.95 45.05Q256.95 43.25 255.35 42.38Q253.75 41.50 250.40 40.65Q247.35 39.85 245.43 39.02Q243.50 38.20 242.13 36.58Q240.75 34.95 240.75 32.30Q240.75 30.20 242.00 28.45Q243.25 26.70 245.55 25.67Q247.85 24.65 250.80 24.65Q255.35 24.65 258.15 26.95Q260.95 29.25 261.15 33.25L256.60 33.25Q256.45 31.10 254.88 29.80Q253.30 28.50 250.65 28.50Q248.20 28.50 246.75 29.55Q245.30 30.60 245.30 32.30Q245.30 33.65 246.18 34.52Q247.05 35.40 248.38 35.92Q249.70 36.45 252.05 37.10Q255.00 37.90 256.85 38.67Q258.70 39.45 260.03 41Q261.35 42.55 261.40 45.05Q261.40 47.30 260.15 49.10Q258.90 50.90 256.63 51.92Q254.35 52.95 251.40 52.95ZM292.80 37.75Q292.80 39.05 292.65 40.50L270.75 40.50Q271.00 44.55 273.53 46.83Q276.05 49.10 279.65 49.10Q282.60 49.10 284.58 47.73Q286.55 46.35 287.35 44.05L292.25 44.05Q291.15 48 287.85 50.48Q284.55 52.95 279.65 52.95Q275.75 52.95 272.68 51.20Q269.60 49.45 267.85 46.23Q266.10 43 266.10 38.75Q266.10 34.50 267.80 31.30Q269.50 28.10 272.58 26.38Q275.65 24.65 279.65 24.65Q283.55 24.65 286.55 26.35Q289.55 28.05 291.18 31.02Q292.80 34 292.80 37.75M288.10 36.80Q288.10 34.20 286.95 32.33Q285.80 30.45 283.83 29.47Q281.85 28.50 279.45 28.50Q276.00 28.50 273.58 30.70Q271.15 32.90 270.80 36.80L288.10 36.80ZM310.45 38.70Q310.45 34.50 312.15 31.32Q313.85 28.15 316.83 26.40Q319.80 24.65 323.45 24.65Q327.05 24.65 329.70 26.20Q332.35 27.75 333.65 30.10L333.65 25.10L338.25 25.10L338.25 52.50L333.65 52.50L333.65 47.40Q332.30 49.80 329.63 51.38Q326.95 52.95 323.40 52.95Q319.75 52.95 316.80 51.15Q313.85 49.35 312.15 46.10Q310.45 42.85 310.45 38.70M333.65 38.75Q333.65 35.65 332.40 33.35Q331.15 31.05 329.03 29.82Q326.90 28.60 324.35 28.60Q321.80 28.60 319.70 29.80Q317.60 31 316.35 33.30Q315.10 35.60 315.10 38.70Q315.10 41.85 316.35 44.17Q317.60 46.50 319.70 47.73Q321.80 48.95 324.35 48.95Q326.90 48.95 329.03 47.73Q331.15 46.50 332.40 44.17Q333.65 41.85 333.65 38.75ZM350.50 15.50L350.50 52.50L345.95 52.50L345.95 15.50L350.50 15.50ZM362.80 15.50L362.80 52.50L358.25 52.50L358.25 15.50L362.80 15.50ZM381.60 52.85Q378.15 52.85 375.43 51.63Q372.70 50.40 371.15 48.23Q369.60 46.05 369.55 43.20L374.40 43.20Q374.65 45.65 376.43 47.33Q378.20 49 381.60 49Q384.85 49 386.73 47.38Q388.60 45.75 388.60 43.20Q388.60 41.20 387.50 39.95Q386.40 38.70 384.75 38.05Q383.10 37.40 380.30 36.65Q376.85 35.75 374.78 34.85Q372.70 33.95 371.23 32.02Q369.75 30.10 369.75 26.85Q369.75 24 371.20 21.80Q372.65 19.60 375.28 18.40Q377.90 17.20 381.30 17.20Q386.20 17.20 389.33 19.65Q392.45 22.10 392.85 26.15L387.85 26.15Q387.60 24.15 385.75 22.63Q383.90 21.10 380.85 21.10Q378.00 21.10 376.20 22.57Q374.40 24.05 374.40 26.70Q374.40 28.60 375.48 29.80Q376.55 31 378.13 31.63Q379.70 32.25 382.55 33.05Q386.00 34 388.10 34.92Q390.20 35.85 391.70 37.77Q393.20 39.70 393.20 43Q393.20 45.55 391.85 47.80Q390.50 50.05 387.85 51.45Q385.20 52.85 381.60 52.85ZM424.20 25.10L424.20 52.50L419.65 52.50L419.65 48.45Q418.35 50.55 416.03 51.73Q413.70 52.90 410.90 52.90Q407.70 52.90 405.15 51.58Q402.60 50.25 401.13 47.60Q399.65 44.95 399.65 41.15L399.65 25.10L404.15 25.10L404.15 40.55Q404.15 44.60 406.20 46.77Q408.25 48.95 411.80 48.95Q415.45 48.95 417.55 46.70Q419.65 44.45 419.65 40.15L419.65 25.10L424.20 25.10ZM436.45 30.20Q437.85 27.75 440.55 26.20Q443.25 24.65 446.70 24.65Q450.40 24.65 453.35 26.40Q456.30 28.15 458.00 31.32Q459.70 34.50 459.70 38.70Q459.70 42.85 458.00 46.10Q456.30 49.35 453.33 51.15Q450.35 52.95 446.70 52.95Q443.15 52.95 440.48 51.40Q437.80 49.85 436.45 47.45L436.45 52.50L431.90 52.50L431.90 15.50L436.45 15.50L436.45 30.20M455.05 38.70Q455.05 35.60 453.80 33.30Q452.55 31 450.43 29.80Q448.30 28.60 445.75 28.60Q443.25 28.60 441.13 29.82Q439.00 31.05 437.73 33.38Q436.45 35.70 436.45 38.75Q436.45 41.85 437.73 44.17Q439.00 46.50 441.13 47.73Q443.25 48.95 445.75 48.95Q448.30 48.95 450.43 47.73Q452.55 46.50 453.80 44.17Q455.05 41.85 455.05 38.70ZM498.65 24.60Q501.85 24.60 504.35 25.92Q506.85 27.25 508.30 29.90Q509.75 32.55 509.75 36.35L509.75 52.50L505.25 52.50L505.25 37Q505.25 32.90 503.23 30.72Q501.20 28.55 497.75 28.55Q494.20 28.55 492.10 30.82Q490.00 33.10 490.00 37.40L490.00 52.50L485.50 52.50L485.50 37Q485.50 32.90 483.48 30.72Q481.45 28.55 478.00 28.55Q474.45 28.55 472.35 30.82Q470.25 33.10 470.25 37.40L470.25 52.50L465.70 52.50L465.70 25.10L470.25 25.10L470.25 29.05Q471.60 26.90 473.88 25.75Q476.15 24.60 478.90 24.60Q482.35 24.60 485.00 26.15Q487.65 27.70 488.95 30.70Q490.10 27.80 492.75 26.20Q495.40 24.60 498.65 24.60ZM519.55 20.65Q518.25 20.65 517.35 19.75Q516.45 18.85 516.45 17.55Q516.45 16.25 517.35 15.35Q518.25 14.45 519.55 14.45Q520.80 14.45 521.68 15.35Q522.55 16.25 522.55 17.55Q522.55 18.85 521.68 19.75Q520.80 20.65 519.55 20.65M521.75 25.10L521.75 52.50L517.20 52.50L517.20 25.10L521.75 25.10ZM535.05 28.85L535.05 45Q535.05 47 535.90 47.83Q536.75 48.65 538.85 48.65L542.20 48.65L542.20 52.50L538.10 52.50Q534.30 52.50 532.40 50.75Q530.50 49 530.50 45L530.50 28.85L526.95 28.85L526.95 25.10L530.50 25.10L530.50 18.20L535.05 18.20L535.05 25.10L542.20 25.10L542.20 28.85L535.05 28.85Z"/></g></g></svg>