<svg xmlns="http://www.w3.org/2000/svg" viewBox="0 10.350000381469727 180.25 36.53000259399414" data-asc="0.927734375"><g fill="#7b8083"><g fill="#7b8083" transform="translate(0, 0)"><path d="M4.71 42.55L21.56 42.55L21.56 46.39L0 46.39L0 10.84L4.71 10.84L4.71 42.55ZM40.58 46.39L36.04 46.39L36.04 16.28L26.93 19.63L26.93 15.53L39.87 10.67L40.58 10.67L40.58 46.39ZM72.88 34.45L77.81 34.45L77.81 38.13L72.88 38.13L72.88 46.39L68.33 46.39L68.33 38.13L52.15 38.13L52.15 35.47L68.07 10.84L72.88 10.84L72.88 34.45M57.28 34.45L68.33 34.45L68.33 17.02L67.80 17.99L57.28 34.45ZM104.17 31.23Q104.17 39.16 101.46 43.02Q98.75 46.88 92.99 46.88Q87.30 46.88 84.57 43.10Q81.84 39.33 81.74 31.84L81.74 25.81Q81.74 17.97 84.45 14.16Q87.16 10.35 92.94 10.35Q98.68 10.35 101.39 14.03Q104.10 17.70 104.17 25.37L104.17 31.23M99.66 25.05Q99.66 19.31 98.05 16.69Q96.44 14.06 92.94 14.06Q89.48 14.06 87.89 16.67Q86.30 19.29 86.25 24.71L86.25 31.93Q86.25 37.70 87.93 40.44Q89.60 43.19 92.99 43.19Q96.34 43.19 97.96 40.60Q99.58 38.01 99.66 32.45L99.66 25.05ZM132.25 31.23Q132.25 39.16 129.54 43.02Q126.83 46.88 121.07 46.88Q115.38 46.88 112.65 43.10Q109.91 39.33 109.81 31.84L109.81 25.81Q109.81 17.97 112.52 14.16Q115.23 10.35 121.02 10.35Q126.76 10.35 129.47 14.03Q132.18 17.70 132.25 25.37L132.25 31.23M127.73 25.05Q127.73 19.31 126.12 16.69Q124.51 14.06 121.02 14.06Q117.55 14.06 115.97 16.67Q114.38 19.29 114.33 24.71L114.33 31.93Q114.33 37.70 116.00 40.44Q117.68 43.19 121.07 43.19Q124.41 43.19 126.04 40.60Q127.66 38.01 127.73 32.45L127.73 25.05ZM147.90 33.13L135.99 33.13L135.99 29.44L147.90 29.44L147.90 33.13ZM162.04 29.86L157.69 34.38L157.69 46.39L153.00 46.39L153.00 10.84L157.69 10.84L157.69 28.42L173.49 10.84L179.15 10.84L165.16 26.54L180.25 46.39L174.63 46.39L162.04 29.86Z"/></g></g></svg>